<svg version="1.1" id="Layer_1" xmlns="http://www.w3.org/2000/svg" xmlns:xlink="http://www.w3.org/1999/xlink" x="0px" y="0px"
     viewBox="0 0 872.6 198.9" style="enable-background:new 0 0 872.6 198.9;" xml:space="preserve">
<style type="text/css">
    .st0{stroke:#000000;stroke-miterlimit:10;}
    .st1{fill:none;}
    .st2{stroke:#000D42;stroke-miterlimit:10;}
    <defs>
        <style>
            .sto {
                stroke-dasharray: 800;
                stroke-dashoffset:0;
                -webkit-animation: dash 2s linear forwards;
                -o-animation: dash 2s linear forwards;
                -moz-animation: dash 2s linear forwards;
                animation: dash 2s linear forwards;
                }

                @-webkit-keyframes dash {
                    from {
                        stroke-dashoffset: 800;
                    }
                    to {
                        stroke-dashoffset: 0;
                    }
                }
        </style>
    </defs>

</style>
<g>
    <path class="st0" d="M31.1,128.6c0.9-1.3,1.9-2.4,3-3.6c1.1-1.1,2.1-2.3,3.3-3.3c1.1-1.1,2.3-2.1,3.4-3.2c1.2-1,2.3-2.1,3.7-2.9
        c1.3-0.9,2.6-1.8,3.9-2.6s2.6-1.7,4-2.5c1.3-0.8,2.7-1.6,4.1-2.3c1.4-0.8,2.8-1.4,4.2-2.1c1.4-0.7,2.9-1.3,4.3-1.9l2.2-0.8l2.1-0.8
        c1.4-0.6,2.9-1.1,4.4-1.6c1.5-0.5,2.9-1,4.4-1.5c3-0.9,6-1.8,9-2.6c1.5-0.4,3-0.8,4.5-1.1s3-0.7,4.6-1l7.9-1.4l-6.8,4.2
        c-4.3,2.7-8.7,5.3-13.1,7.9c-1.1,0.6-2.2,1.3-3.4,1.9c-1.1,0.6-2.2,1.2-3.3,1.8c-2.2,1.2-4.4,2.5-6.6,3.8
        c-4.3,2.6-8.6,5.3-12.9,8.1c-2.1,1.4-4.2,2.8-6.3,4.3c-1,0.7-2.1,1.5-3,2.2l-1.4,1.1l-0.3,0.2l-0.1,0.1l0,0c0,0,0,0,0.1-0.1
        c0-0.1,0,0,0.1-0.2c0-0.1,0-0.1,0-0.2c0,0,0-0.1,0-0.3c0-0.1,0-0.3-0.1-0.4c-0.1-0.2-0.2-0.4-0.3-0.5c-0.2-0.2-0.3-0.2-0.4-0.3
        s-0.2-0.1-0.3-0.1c-0.2-0.1-0.4,0-0.4,0c-0.1,0-0.1,0-0.1,0s0,0,0.1,0s0.2-0.1,0.4-0.1l0.7,2.8l-7.6-0.4l-3.8-0.2L31.1,128.6z
         M31.1,128.6l3.8-0.6l3.8-0.5l7.6-1l8.5-1.2l-7.8,3.9c-0.2,0.1-0.3,0.2-0.5,0.2c-0.1,0-0.2,0.1-0.4,0.1c-0.1,0-0.2,0.1-0.4,0.1
        c-0.1,0-0.3,0-0.5,0c-0.1,0-0.2-0.1-0.4-0.1c-0.1-0.1-0.2-0.1-0.4-0.3c-0.1-0.2-0.3-0.4-0.3-0.5c-0.1-0.1-0.1-0.3-0.1-0.5
        s0-0.3,0-0.3c0-0.1,0-0.1,0.1-0.2c0.1-0.2,0.1-0.2,0.1-0.2c0.1-0.1,0.1-0.2,0.1-0.2c0.1-0.1,0.1-0.2,0.2-0.2
        c0.1-0.1,0.2-0.2,0.2-0.3c0.1-0.1,0.3-0.3,0.4-0.4c0.5-0.5,1-0.9,1.6-1.2c1-0.8,2.1-1.5,3.2-2.2c2.1-1.5,4.2-2.9,6.4-4.3
        c4.3-2.8,8.6-5.5,13-8.2c2.2-1.3,4.4-2.6,6.7-3.9c1.1-0.6,2.3-1.2,3.4-1.8c1.1-0.6,2.2-1.2,3.3-1.8c4.4-2.6,8.7-5.2,13-7.9l1,2.8
        c-1.5,0.3-3,0.6-4.4,0.9c-1.5,0.3-3,0.7-4.4,1.1c-3,0.8-5.9,1.6-8.8,2.5c-1.5,0.5-2.9,0.9-4.3,1.4c-1.4,0.5-2.8,1-4.3,1.6l-2.2,0.8
        l-2.1,0.8c-1.4,0.6-2.8,1.2-4.1,1.8c-1.4,0.7-2.7,1.3-4,2.1c-1.3,0.7-2.6,1.5-4,2.2c-1.3,0.8-2.6,1.6-3.9,2.4
        c-1.3,0.8-2.5,1.7-3.8,2.6c-0.6,0.4-1.2,0.9-1.9,1.3l-1.9,1.2c-1.3,0.8-2.6,1.7-3.8,2.5c-1.3,0.9-2.5,1.7-3.8,2.6
        C33.5,126.7,32.3,127.6,31.1,128.6z"/>
</g>
<g>
    <path class="st0" d="M838.3,59.3c1.1-0.5,2.2-1,3.3-1.6s2.2-1.2,3.4-1.8c0.6-0.3,1.2-0.5,1.7-0.7c0.6-0.2,1.2-0.2,1.8-0.4
        c1.2-0.2,2.4-0.5,3.6-0.7c2.4-0.4,4.9-0.8,7.3-1c1.2-0.1,2.5-0.2,3.7-0.3c1.3-0.1,2.5-0.1,3.8,0c0.3,0,0.7,0.1,1,0.1
        c0.4,0.1,0.7,0.1,1.3,0.3c0.2,0.1,0.7,0.3,1.1,0.9c0.1,0.1,0.2,0.4,0.2,0.6s0,0.4,0,0.6v0.1v0.1l0,0v0.1v0.1l-0.2,0.9l-0.2,0.9
        l-0.3,0.9c-0.2,0.6-0.4,1.2-0.6,1.8c-0.8,2.4-1.8,4.7-2.9,6.9c-1.1,2.2-2.3,4.4-3.3,6.5c-1.1,2.1-2,4.3-2.5,6.4l-1.9,1.2
        c0.2,0,0,0,0,0h-0.3h-0.7l-1.4,0.1l-2.9,0.2l-5.9,0.4c-2,0.1-3.9,0.3-5.9,0.4s-4,0.2-6.1,0.1c-0.3,0-0.5,0-0.8-0.1
        c-0.3,0-0.6-0.1-1-0.2c-0.1-0.1-0.2-0.1-0.4-0.2c-0.1-0.1-0.2-0.1-0.3-0.2s-0.3-0.2-0.4-0.6c-0.1-0.3-0.2-0.6-0.1-1
        c0-0.2,0-0.2,0-0.2l0,0v-0.2l0.2-0.7c0.2-0.9,0.5-1.9,0.7-2.8l0.6-2.9l0.3-1.4c0.1-0.5,0.3-0.9,0.4-1.4c0.6-1.9,1.3-3.8,2-5.6
        c0.3-0.9,0.6-1.9,0.9-2.8l0.4-1.4l0.2-0.7C838.1,59.7,838.1,59.5,838.3,59.3z M838.3,59.3c-0.3,0.4-0.4,0.9-0.5,1.4s-0.2,1-0.2,1.5
        c-0.1,1-0.2,2-0.2,3c-0.1,2,0,4-0.2,6c0,0.5-0.1,1-0.2,1.5c-0.1,0.5-0.2,1-0.3,1.5l-0.6,2.9c-0.2,1-0.5,1.9-0.7,2.9l-0.2,0.7v0.2
        l0,0c0,0,0,0.1,0-0.1c0-0.3,0-0.6-0.1-0.8c-0.2-0.3-0.2-0.3-0.3-0.4s-0.1-0.1-0.2-0.1c-0.1-0.1-0.1,0-0.1,0s0.2,0.1,0.4,0.1
        s0.4,0,0.6,0c1.8,0.1,3.8,0,5.8-0.1s3.9-0.2,5.9-0.4l5.9-0.4l3-0.2l1.5-0.1h0.8h0.4c0.2,0,0.3,0,0.7,0.1l-1.9,1.2
        c0.5-2.7,1.6-5,2.7-7.2c1.1-2.2,2.3-4.3,3.3-6.5c1.1-2.2,2-4.3,2.8-6.6c0.2-0.6,0.4-1.1,0.5-1.7l0.3-0.8l0.2-0.9l0.2-0.9V55v-0.1
        l0,0l0,0l0,0c0,0.2,0,0.5,0.1,0.7c0.2,0.4,0.4,0.4,0.3,0.4c0,0-0.3-0.1-0.5-0.1s-0.5-0.1-0.8-0.1c-1.1-0.1-2.3,0-3.5,0
        c-1.2,0.1-2.4,0.2-3.6,0.3c-2.4,0.3-4.8,0.6-7.1,1c-1.2,0.2-2.4,0.4-3.5,0.7c-0.6,0.1-1.2,0.3-1.8,0.4s-1.2,0.1-1.8,0.1
        c-1.2,0.1-2.5,0-3.7,0.1C840.6,58.6,839.4,58.8,838.3,59.3z"/>
</g>
<g>
    <path class="st1" d="M802.3,27.8"/>
</g>
<g>
    <path class="st1" d="M236.3,111"/>
</g>
<g>
    <path class="st1" d="M840.1,83.3"/>
</g>
<g>
    <path class="st0" d="M251.2,109.1c0,0,1.5-0.3,4.4-0.8c2.8-0.5,7-1.3,12.3-2.3c5.3-0.9,11.8-2.1,19.2-3.4c3.7-0.7,7.6-1.4,11.8-2.1
        c4.2-0.7,8.6-1.2,13.1-2c36.6-5.4,85.4-12.7,134.2-19.9s97.6-14.5,134.2-19.9c4.6-0.6,8.9-1.4,13.1-1.9c4.2-0.5,8.2-1,11.9-1.4
        c7.5-0.9,14-1.7,19.3-2.3c10.7-1.2,16.9-1.9,16.9-1.9s-6.1,1.1-16.7,3c-5.3,0.9-11.8,2.1-19.2,3.4c-3.7,0.7-7.6,1.4-11.8,2.1
        c-4.1,0.8-8.6,1.3-13.1,2c-36.6,5.4-85.4,12.7-134.2,19.9c-48.8,7.2-97.6,14.5-134.2,19.9c-4.6,0.6-8.9,1.4-13.1,1.9
        s-8.2,1-11.9,1.4c-7.5,0.9-14,1.7-19.3,2.3c-5.4,0.6-9.6,1.1-12.5,1.4C252.8,108.9,251.2,109.1,251.2,109.1z"/>
</g>
<g>
    <path class="st0" d="M4.6,147.8c0,0,1.6-0.6,4.5-1.7c1.4-0.5,3.2-1.2,5.2-1.9c1-0.4,2.1-0.7,3.2-1.1c1.1-0.4,2.4-0.6,3.6-1
        c2.5-0.7,5.2-1.4,8.1-2.2s5.9-1.6,9.1-2.4c3.2-0.8,6.4-1.6,9.7-2.5c3.3-0.8,6.7-1.6,10.1-2.4c3.4-0.8,6.8-1.6,10.1-2.3
        c3.4-0.7,6.6-1.5,9.8-2c3.2-0.6,6.3-1.2,9.3-1.7s5.7-1,8.3-1.3c1.3-0.1,2.5-0.4,3.7-0.5s2.3-0.1,3.4-0.1c1.1,0,2.1,0,3,0
        s1.8,0,2.5,0c3.1,0.2,4.8,0.3,4.8,0.3s-1.7,0.2-4.8,0.4c-0.8,0-1.6,0.2-2.5,0.3s-1.9,0.3-2.9,0.4c-1,0.2-2.1,0.3-3.3,0.6
        c-1.2,0.2-2.4,0.3-3.7,0.5c-2.6,0.3-5.3,0.8-8.3,1.3c-2.9,0.5-6,1.1-9.2,1.7c-3.2,0.6-6.5,1.3-9.8,2s-6.7,1.5-10.1,2.3
        s-6.7,1.6-10.1,2.4c-3.3,0.8-6.6,1.7-9.7,2.5s-6.2,1.6-9.1,2.4c-2.9,0.8-5.6,1.5-8.1,2.2c-1.3,0.3-2.4,0.7-3.6,1
        c-1.2,0.2-2.3,0.5-3.3,0.7c-2.1,0.4-3.9,0.8-5.4,1.1C6.3,147.5,4.6,147.8,4.6,147.8z"/>
</g>
<g>
    <path class="st0" d="M595.8,80.1c-3.8,0.1-7.6,0.2-11.4,0.6c-1.9,0.2-3.8,0.4-5.6,0.8c-0.4,0.1-0.9,0.2-1.3,0.4
        c-0.4,0.1-0.8,0.4-0.9,0.5c-0.1,0,0,0.1,0,0.1l-0.2,0.3l-0.3,0.7c-0.2,0.4-0.4,0.9-0.7,1.3l-0.7,1.3l-0.7,1.3l-1.4,2.5l-2.8,5
        l-2.9,5l-2.9,5c-1,1.6-2,3.3-3,4.9l-3.1,4.8l-6.1,9.7l-12.3,19.4l-0.2,0.2l-0.2,0.2l-15,10.7l-0.3,0.2h-0.4l-127.7,11.1l-63.9,5.6
        l-16,1.4c-5.3,0.4-10.7,0.6-16,0.9l-16,0.9l-16,0.8l15.9-2l15.9-1.9c5.3-0.6,10.6-1.3,15.9-1.9l16-1.4l63.9-5.6l127.7-11.1
        l-0.7,0.3l15-10.7l-0.4,0.4l12.3-19.4l6.1-9.7l3-4.9c1-1.6,2-3.3,3-4.9l6.3-9.5l3.1-4.8l1.5-2.4l0.8-1.2l0.7-1.2
        c0.2-0.4,0.5-0.8,0.7-1.2l0.3-0.6c0.1-0.1,0.1-0.2,0.2-0.3c0.1-0.2,0.2-0.4,0.4-0.5c0.5-0.5,1.1-0.7,1.6-0.8c0.5-0.2,1-0.3,1.5-0.3
        c1.9-0.3,3.9-0.4,5.8-0.5C588.2,79.7,592,79.9,595.8,80.1z"/>
</g>
<g>
    <path class="st0" d="M791.6,132.6l32.4-22.1l0.2-0.1l0.3,0.1l15.1,6.7l-0.3-0.1l20.5,0.1l-0.6,1.5l-3.7-3.3l-0.3-0.3v-0.4l0.4-26.5
        v-0.3l0.1-0.3c0.8-1.4,1.5-2.8,2.4-4.2l0.4-0.5l0.2-0.3l0.1-0.1l0,0l0,0l0,0l0,0c0,0-0.2,0.2-0.1,0.1l0,0l0.1-0.1c0.1-0.1,0,0,0,0
        c0,0.1,0,0,0,0c0-0.1,0-0.2,0-0.3c0-0.2-0.2-0.5-0.3-0.8c-0.1-0.1-0.1-0.3-0.2-0.4c-0.1-0.1-0.2-0.3-0.3-0.4l-0.4-0.6l0.3-0.7
        c0.6-1.2,1.1-2.4,1.7-3.5c0.6-1.2,1.2-2.3,1.8-3.5s1.3-2.3,2-3.4c0.3-0.5,0.6-1.1,0.8-1.6c0.3-0.5,0.5-1.1,0.7-1.7
        c0.4-1.2,0.8-2.3,1.1-3.6c0.3-1.2,0.6-2.5,0.9-3.7c0.6-2.5,1.1-5,1.7-7.5l1,1.8c-4.8-1.6-9.8-3.2-14.7-4.5
        c-1.2-0.3-2.5-0.7-3.7-0.9c-1.2-0.3-2.5-0.6-3.7-0.8l-1.9-0.3c-0.6-0.1-1.2-0.2-1.8-0.3c-0.6-0.1-1.2-0.1-1.8-0.2s-1.1,0-1.7,0
        h-0.5l-0.3-0.2l-1.2-0.6c-0.4-0.2-0.8-0.4-1.3-0.6c-0.4-0.2-0.9-0.3-1.3-0.5c-0.4-0.1-0.9-0.3-1.3-0.4c-0.5-0.1-0.9-0.2-1.4-0.3
        c-0.5-0.1-0.9-0.1-1.4-0.2l-1.4-0.1h-1.4c-0.9,0-1.9,0.1-2.8,0.2c-1,0.1-1.9,0.2-2.9,0.4c-1,0.1-2,0.3-3,0.4
        c-0.5,0.1-1,0.1-1.6,0.1c-0.5,0-1.1,0-1.6,0h-0.1h-0.1l-43-7.7c-1.8-0.3-3.6-0.7-5.3-0.9l-5.4-0.8l-10.8-1.6l-21.6-3.2L709,26.5
        l-2.7-0.4c-0.5-0.1-0.9-0.1-1.3-0.2l-1.4-0.2l-5.5-0.7l-10.8-1.4l-21.7-2.9c-7.2-1-14.4-1.9-21.7-3c-3.6-0.6-7.2-1.2-10.8-1.6
        l-5.4-0.7l-5.4-0.6c-7.2-0.8-14.5-1.5-21.7-2.2s-14.5-1.3-21.8-1.9S564.3,9.6,557,9c-29-2.1-58.1-4-87.2-5.6h0.1L458.2,4l-5.8,0.3
        l-5.8,0.4c-3.9,0.3-7.8,0.6-11.7,0.9l-11.6,1.2c-3.9,0.4-7.7,0.9-11.6,1.4s-7.7,1-11.6,1.6c-3.8,0.6-7.7,1.2-11.5,1.8l-11.5,2.1
        c-3.8,0.7-7.6,1.5-11.5,2.3c-3.8,0.7-7.6,1.7-11.4,2.5s-7.6,1.8-11.4,2.7c-3.8,0.9-7.5,2-11.3,3s-7.5,2.2-11.2,3.3
        c-3.7,1.2-7.4,2.3-11.1,3.6l-5.5,1.9l-5.5,2c-3.6,1.4-7.2,2.8-10.8,4.4h-0.1l0,0l-84.7,31.2l-0.2,0.1h-0.2l-27.4,3.4
        c-1.1,0.1-2.3,0.3-3.4,0.5l-3.4,0.6l-6.8,1.1l-13.6,2.3l-13.5,2.9l-6.7,1.4l-3.4,0.7l-3.3,0.9L107.4,88c-4.5,1.1-8.8,2.6-13.2,4
        l-6.6,2.1c-1.1,0.4-2.2,0.7-3.3,1.1l-3.2,1.2l-12.8,5c-4.2,1.9-8.4,3.8-12.6,5.6c-1.1,0.4-2.1,1-3.1,1.5l-3.1,1.6l-6.1,3.2
        c-2,1.1-3.9,2.3-5.9,3.5l-2.9,1.8c-1,0.6-2,1.2-2.9,1.8c-3.7,2.6-7.6,5.1-11.1,8.1l-2.7,2.1c-0.9,0.7-1.7,1.5-2.6,2.3
        c-1.7,1.6-3.4,3-4.9,4.8L8,140.2c-0.8,0.9-1.5,1.7-2.2,2.6c-0.4,0.4-0.7,0.9-1.1,1.3l-1,1.4c-0.7,0.9-1.3,1.9-1.9,2.8v-0.7
        c2.8,5,5.8,9.9,8.9,14.6c1.6,2.4,3.1,4.8,4.9,7c0.9,1.1,1.7,2.3,2.7,3.3c0.5,0.5,1,1,1.5,1.5c0.5,0.4,1.1,0.9,1.6,0.9L22,175
        l-0.3,0.5c-2.7,3.8-5.4,7.6-8,11.5c-1.3,1.9-2.6,3.9-3.9,5.8c-0.6,1-1.2,2-1.8,3c-0.3,0.5-0.6,1-0.8,1.5s-0.6,1-0.6,1.6
        c0-0.6,0.3-1.1,0.5-1.6c0.3-0.5,0.5-1,0.8-1.6c0.6-1,1.2-2,1.8-3c1.2-2,2.5-4,3.7-5.9c2.5-3.9,5.1-7.8,7.8-11.7l0.3,0.5
        c-0.9-0.1-1.5-0.6-2.1-1.1s-1.1-1-1.6-1.5c-1-1.1-1.9-2.2-2.8-3.3c-1.8-2.3-3.4-4.6-5-7c-3.2-4.7-6.3-9.6-9.2-14.5l-0.2-0.4
        l0.2-0.4c0.6-1,1.2-2,1.9-2.9l1-1.4c0.3-0.5,0.7-0.9,1.1-1.4c0.7-0.9,1.4-1.8,2.2-2.7l2.3-2.6c1.5-1.8,3.3-3.3,4.9-4.9
        c0.9-0.8,1.6-1.6,2.5-2.4l2.7-2.2c3.5-3.1,7.3-5.7,11.1-8.4c0.9-0.7,1.9-1.3,2.9-1.9l2.9-1.9c2-1.2,3.9-2.5,5.9-3.7l6.1-3.3
        l3.1-1.7c1-0.5,2-1.1,3.1-1.6c4.2-2,8.4-3.9,12.6-5.8c4.3-1.7,8.6-3.4,13-5l3.2-1.2c1.1-0.4,2.2-0.7,3.3-1.1l6.6-2.1
        c4.4-1.4,8.8-3,13.3-4l13.4-3.6l3.4-0.9l3.4-0.7l6.8-1.5l13.6-2.9l13.7-2.3l6.8-1.1l3.4-0.6c1.1-0.2,2.3-0.4,3.4-0.5l27.5-3.4
        l-0.4,0.1l84.7-31.2h-0.1c3.6-1.6,7.3-3.1,10.9-4.4l5.5-2l5.6-1.9c3.7-1.2,7.5-2.4,11.2-3.6c3.8-1.1,7.5-2.3,11.3-3.3
        s7.5-2.1,11.4-3c3.8-0.9,7.6-1.9,11.4-2.8c3.8-0.8,7.6-1.8,11.5-2.5c3.8-0.8,7.7-1.6,11.5-2.3L388,8.7c3.9-0.6,7.7-1.2,11.6-1.8
        c3.9-0.6,7.8-1.1,11.6-1.6c3.9-0.5,7.8-1,11.7-1.4l11.7-1.2c3.9-0.3,7.8-0.6,11.7-0.9l5.9-0.4l5.9-0.3l11.7-0.6h0.1h0.1
        c29.1,1.6,58.2,3.5,87.3,5.6c7.3,0.5,14.5,1.1,21.8,1.7s14.5,1.2,21.8,1.9c7.3,0.7,14.5,1.4,21.8,2.2l5.4,0.6l5.5,0.7
        c3.7,0.4,7.2,1.1,10.8,1.7c7.1,1,14.4,2,21.6,3l21.6,2.9l10.8,1.4l5.4,0.7l1.4,0.2c0.5,0.1,1,0.1,1.4,0.2l2.7,0.4l21.6,3.1
        l21.6,3.2l10.8,1.6l5.4,0.8c1.9,0.3,3.6,0.6,5.4,0.9l43,7.7h-0.2c0.5,0,0.9,0,1.4,0s0.9-0.1,1.4-0.1c0.9-0.1,1.9-0.2,2.9-0.4
        c1-0.1,2-0.3,3-0.4s2.1-0.2,3.1-0.2h1.6l1.6,0.1c0.5,0.1,1,0.1,1.6,0.2c0.5,0.1,1,0.2,1.6,0.3c0.5,0.1,1,0.3,1.5,0.4s1,0.3,1.5,0.5
        s1,0.4,1.5,0.6l1.4,0.7l-0.9-0.2c0.7,0,1.5-0.1,2.2,0s1.4,0.1,2,0.2c0.7,0.1,1.3,0.2,2,0.3l1.9,0.4c1.3,0.3,2.6,0.5,3.8,0.9
        c1.3,0.3,2.5,0.6,3.8,1c2.5,0.7,5,1.4,7.5,2.1c2.5,0.8,4.9,1.5,7.4,2.4l1.3,0.4l-0.3,1.3c-0.6,2.5-1.1,5-1.7,7.6
        c-0.6,2.5-1.3,5-2.2,7.6c-0.3,0.6-0.5,1.3-0.8,1.9s-0.6,1.2-1,1.8c-0.7,1.1-1.4,2.2-2,3.3c-0.6,1.1-1.2,2.2-1.8,3.3
        c-0.6,1.1-1.1,2.3-1.7,3.4l-0.1-1.3c0.2,0.2,0.3,0.4,0.4,0.6c0.1,0.2,0.2,0.4,0.3,0.6c0.2,0.4,0.4,0.9,0.5,1.4
        c0,0.3,0.1,0.6,0.1,0.9c0,0.2,0,0.3-0.1,0.6c-0.1,0.2-0.2,0.5-0.2,0.6l-0.1,0.1l-0.1,0.2l0,0l-0.2,0.2l-0.3,0.5
        c-0.8,1.3-1.6,2.7-2.4,4.1l0.1-0.5l-0.9,26.5l-0.3-0.7l3.6,3.4l1.7,1.6l-2.3-0.1l-20.5-0.5h-0.1l-0.1-0.1l-14.9-7h0.5L791.6,132.6z
        "/>
</g>
<g>
    <path class="st0" d="M775,76.3c0,0,1-0.4,2.9-1c0.9-0.3,2-0.7,3.3-1.1c0.6-0.2,1.3-0.4,2-0.7c0.7-0.2,1.5-0.4,2.3-0.6
        c6.4-1.7,14.8-4,23.3-6.4c8.5-2.3,17-4.6,23.3-6.4c0.8-0.2,1.5-0.5,2.3-0.6c0.7-0.2,1.4-0.3,2.1-0.4c1.3-0.3,2.5-0.5,3.4-0.7
        c1.9-0.4,3-0.6,3-0.6s-1,0.4-2.9,1c-0.9,0.3-2,0.7-3.3,1.1c-0.6,0.2-1.3,0.4-2,0.7c-0.7,0.2-1.5,0.4-2.3,0.6
        c-6.4,1.7-14.8,4-23.3,6.4s-17,4.6-23.3,6.4c-0.8,0.2-1.5,0.5-2.3,0.6c-0.7,0.2-1.4,0.3-2.1,0.4c-1.3,0.3-2.5,0.5-3.4,0.7
        C776,76.1,775,76.3,775,76.3z"/>
</g>
<line class="st2" x1="833.6" y1="80.5" x2="824.3" y2="111"/>
<g>
    <path class="st0" d="M562.8,51.1c0,0,3.9-0.5,10.7-1.4c3.4-0.4,7.5-0.9,12.3-1.5c2.4-0.3,4.9-0.6,7.6-0.9c2.7-0.3,5.5-0.5,8.4-0.8
        c23.4-2.2,54.7-4.7,86-6.2c7.8-0.4,15.7-0.7,23.4-0.9c7.7-0.3,15.3-0.4,22.7-0.5s14.5,0,21.2,0.1c3.4,0,6.6,0.2,9.8,0.3
        c3.2,0.1,6.2,0.3,9.2,0.4c2.9,0.2,5.8,0.4,8.4,0.6c2.7,0.2,5.2,0.6,7.6,0.8c2.4,0.2,4.6,0.6,6.6,0.9c1,0.1,2,0.3,2.9,0.4
        c0.9,0.2,1.8,0.3,2.7,0.5c1.7,0.3,3.2,0.6,4.5,0.8c1.3,0.3,2.4,0.6,3.3,0.8c1.8,0.4,2.7,0.7,2.7,0.7s-1-0.2-2.8-0.6
        c-0.9-0.2-2-0.4-3.3-0.7c-1.3-0.2-2.8-0.4-4.5-0.7c-0.8-0.1-1.7-0.3-2.7-0.4c-0.9-0.1-1.9-0.2-3-0.3c-2.1-0.2-4.3-0.5-6.6-0.7
        c-4.8-0.4-10.1-0.7-16-1.1c-2.9-0.1-6-0.3-9.2-0.4s-6.4-0.2-9.8-0.3c-6.7-0.1-13.8-0.2-21.2-0.1c-7.3,0.1-14.9,0.2-22.6,0.5
        c-7.7,0.2-15.5,0.6-23.4,0.9c-31.3,1.5-62.6,4.1-86,6.2c-2.9,0.3-5.7,0.5-8.4,0.8c-2.7,0.2-5.2,0.4-7.6,0.6
        c-4.8,0.4-8.9,0.8-12.3,1.1C566.7,50.7,562.8,51.1,562.8,51.1z"/>
</g>
</svg>
