<svg id="Layer_1" data-name="Layer 1" xmlns="http://www.w3.org/2000/svg" viewBox="0 0 872.55 198.9" width="400px" height="200px">
    <defs>
        <style>
            .cls-1{
                fill:none;
                stroke: white;
                stroke-width: 10;
                stroke-miterlimit:10;
                stroke-dasharray: 2500, 4000;
                stroke-dashoffset:200;
                -webkit-animation: dash 2s linear forwards;
                -o-animation: dash 2s linear forwards;
                -moz-animation: dash 2s linear forwards;
                animation: dash 2s linear forwards;
                }

                @-webkit-keyframes dash {
                    from {
                        stroke-dashoffset: 2500;
                    }
                    to {
                        stroke-dashoffset: 100;
                    }

                }
            }
        </style>
    </defs>
    <title>if_Lamborghini_aventedor_732850</title>
<path class="cls-1" d="M31.06,128.6a33.67,33.67,0,0,1,3-3.6c1.1-1.1,2.1-2.3,3.3-3.3s2.3-2.1,3.4-3.2a26.29,26.29,0,0,1,3.7-2.9c1.3-.9,2.6-1.8,3.9-2.6s2.6-1.7,4-2.5,2.7-1.6,4.1-2.3,2.8-1.4,4.2-2.1,2.9-1.3,4.3-1.9l2.2-.8,2.1-.8c1.4-.6,2.9-1.1,4.4-1.6s2.9-1,4.4-1.5c3-.9,6-1.8,9-2.6,1.5-.4,3-.8,4.5-1.1s3-.7,4.6-1l7.9-1.4-6.8,4.2c-4.3,2.7-8.7,5.3-13.1,7.9-1.1.6-2.2,1.3-3.4,1.9l-3.3,1.8c-2.2,1.2-4.4,2.5-6.6,3.8q-6.45,3.9-12.9,8.1c-2.1,1.4-4.2,2.8-6.3,4.3-1,.7-2.1,1.5-3,2.2l-1.4,1.1-.3.2-.1.1h0l.1-.1c0-.1,0,0,.1-.2v-.5a.6.6,0,0,0-.1-.4,2.18,2.18,0,0,0-.3-.5c-.2-.2-.3-.2-.4-.3a.37.37,0,0,0-.3-.1.48.48,0,0,0-.4,0h0c.1,0,.2-.1.4-.1l.7,2.8-7.6-.4-3.8-.2Zm0,0,3.8-.6,3.8-.5,7.6-1,8.5-1.2L47,129.2c-.2.1-.3.2-.5.2s-.2.1-.4.1-.2.1-.4.1h-.5c-.1,0-.2-.1-.4-.1s-.2-.1-.4-.3-.3-.4-.3-.5a.75.75,0,0,1-.1-.5v-.3c0-.1,0-.1.1-.2l.1-.2a.31.31,0,0,0,.1-.2c.1-.1.1-.2.2-.2s.2-.2.2-.3l.4-.4a6.1,6.1,0,0,1,1.6-1.2,36.18,36.18,0,0,1,3.2-2.2c2.1-1.5,4.2-2.9,6.4-4.3,4.3-2.8,8.6-5.5,13-8.2,2.2-1.3,4.4-2.6,6.7-3.9,1.1-.6,2.3-1.2,3.4-1.8l3.3-1.8c4.4-2.6,8.7-5.2,13-7.9l1,2.8c-1.5.3-3,.6-4.4.9s-3,.7-4.4,1.1c-3,.8-5.9,1.6-8.8,2.5-1.5.5-2.9.9-4.3,1.4s-2.8,1-4.3,1.6l-2.2.8-2.1.8c-1.4.6-2.8,1.2-4.1,1.8s-2.7,1.3-4,2.1-2.6,1.5-4,2.2l-3.9,2.4c-1.3.8-2.5,1.7-3.8,2.6-.6.4-1.2.9-1.9,1.3l-1.9,1.2c-1.3.8-2.6,1.7-3.8,2.5s-2.5,1.7-3.8,2.6A44,44,0,0,0,31.06,128.6Z"/>

<path class="cls-1" d="M838.26,59.3c1.1-.5,2.2-1,3.3-1.6s2.2-1.2,3.4-1.8c.6-.3,1.2-.5,1.7-.7s1.2-.2,1.8-.4c1.2-.2,2.4-.5,3.6-.7,2.4-.4,4.9-.8,7.3-1l3.7-.3a24.1,24.1,0,0,1,3.8,0c.3,0,.7.1,1,.1a11.15,11.15,0,0,1,1.3.3,2.48,2.48,0,0,1,1.1.9,1.07,1.07,0,0,1,.2.6v.8h0v.2l-.2.9-.2.9-.3.9-.6,1.8a52.8,52.8,0,0,1-2.9,6.9c-1.1,2.2-2.3,4.4-3.3,6.5a28.25,28.25,0,0,0-2.5,6.4l-1.9,1.2h-1l-1.4.1-2.9.2-5.9.4c-2,.1-3.9.3-5.9.4s-4,.2-6.1.1a2.2,2.2,0,0,1-.8-.1,4.4,4.4,0,0,1-1-.2c-.1-.1-.2-.1-.4-.2s-.2-.1-.3-.2a1,1,0,0,1-.4-.6,1.64,1.64,0,0,1-.1-1v-.2h0v-.2l.2-.7c.2-.9.5-1.9.7-2.8l.6-2.9.3-1.4c.1-.5.3-.9.4-1.4.6-1.9,1.3-3.8,2-5.6.3-.9.6-1.9.9-2.8l.4-1.4.2-.7A.84.84,0,0,1,838.26,59.3Zm0,0a3.36,3.36,0,0,0-.5,1.4,7.72,7.72,0,0,0-.2,1.5c-.1,1-.2,2-.2,3-.1,2,0,4-.2,6a7.72,7.72,0,0,1-.2,1.5l-.3,1.5-.6,2.9c-.2,1-.5,1.9-.7,2.9l-.2.7v.2h0v-.1a2,2,0,0,0-.1-.8,1.87,1.87,0,0,0-.3-.4c-.1-.1-.1-.1-.2-.1s-.1,0-.1,0a1,1,0,0,0,.4.1h.6a57.07,57.07,0,0,0,5.8-.1c2-.1,3.9-.2,5.9-.4l5.9-.4,3-.2,1.5-.1h1.2a2.25,2.25,0,0,1,.7.1l-1.9,1.2a26.85,26.85,0,0,1,2.7-7.2c1.1-2.2,2.3-4.3,3.3-6.5a54.41,54.41,0,0,0,2.8-6.6,10.92,10.92,0,0,0,.5-1.7l.3-.8.2-.9.2-.9v-.2h0a1.7,1.7,0,0,0,.1.7c.2.4.4.4.3.4a2,2,0,0,0-.5-.1c-.2,0-.5-.1-.8-.1-1.1-.1-2.3,0-3.5,0l-3.6.3c-2.4.3-4.8.6-7.1,1-1.2.2-2.4.4-3.5.7-.6.1-1.2.3-1.8.4a10.87,10.87,0,0,1-1.8.1c-1.2.1-2.5,0-3.7.1A14.27,14.27,0,0,0,838.26,59.3Z"/>

<path class="cls-1" d="M802.26,27.8"/>

<path class="cls-1" d="M236.26,111"/>

<path class="cls-1" d="M840.06,83.3"/>

<path class="cls-1" d="M251.16,109.1s1.5-.3,4.4-.8,7-1.3,12.3-2.3,11.8-2.1,19.2-3.4c3.7-.7,7.6-1.4,11.8-2.1s8.6-1.2,13.1-2c36.6-5.4,85.4-12.7,134.2-19.9s97.6-14.5,134.2-19.9c4.6-.6,8.9-1.4,13.1-1.9s8.2-1,11.9-1.4c7.5-.9,14-1.7,19.3-2.3l16.9-1.9-16.7,3c-5.3.9-11.8,2.1-19.2,3.4-3.7.7-7.6,1.4-11.8,2.1s-8.6,1.3-13.1,2c-36.6,5.4-85.4,12.7-134.2,19.9S349,96.1,312.36,101.5c-4.6.6-8.9,1.4-13.1,1.9s-8.2,1-11.9,1.4c-7.5.9-14,1.7-19.3,2.3s-9.6,1.1-12.5,1.4S251.16,109.1,251.16,109.1Z"/>

<path class="cls-1" d="M4.56,147.8l4.5-1.7c1.4-.5,3.2-1.2,5.2-1.9,1-.4,2.1-.7,3.2-1.1s2.4-.6,3.6-1c2.5-.7,5.2-1.4,8.1-2.2s5.9-1.6,9.1-2.4,6.4-1.6,9.7-2.5,6.7-1.6,10.1-2.4,6.8-1.6,10.1-2.3,6.6-1.5,9.8-2,6.3-1.2,9.3-1.7,5.7-1,8.3-1.3c1.3-.1,2.5-.4,3.7-.5s2.3-.1,3.4-.1h5.5l4.8.3s-1.7.2-4.8.4a24.18,24.18,0,0,0-2.5.3c-.9.1-1.9.3-2.9.4s-2.1.3-3.3.6-2.4.3-3.7.5c-2.6.3-5.3.8-8.3,1.3s-6,1.1-9.2,1.7-6.5,1.3-9.8,2-6.7,1.5-10.1,2.3l-10.1,2.4c-3.3.8-6.6,1.7-9.7,2.5s-6.2,1.6-9.1,2.4-5.6,1.5-8.1,2.2c-1.3.3-2.4.7-3.6,1s-2.3.5-3.3.7c-2.1.4-3.9.8-5.4,1.1C6.26,147.5,4.56,147.8,4.56,147.8Z"/>

<path class="cls-1" d="M595.76,80.1c-3.8.1-7.6.2-11.4.6a50.32,50.32,0,0,0-5.6.8,6.47,6.47,0,0,0-1.3.4,2.37,2.37,0,0,0-.9.5c-.1,0,0,.1,0,.1l-.2.3-.3.7a8.27,8.27,0,0,1-.7,1.3l-.7,1.3-.7,1.3-1.4,2.5-2.8,5-2.9,5-2.9,5c-1,1.6-2,3.3-3,4.9l-3.1,4.8-6.1,9.7-12.3,19.4-.2.2-.2.2-15,10.7-.3.2h-.4l-127.7,11.1-63.9,5.6-16,1.4c-5.3.4-10.7.6-16,.9l-16,.9-16,.8,15.9-2,15.9-1.9c5.3-.6,10.6-1.3,15.9-1.9l16-1.4,63.9-5.6,127.7-11.1-.7.3,15-10.7-.4.4,12.3-19.4,6.1-9.7,3-4.9c1-1.6,2-3.3,3-4.9l6.3-9.5,3.1-4.8,1.5-2.4.8-1.2.7-1.2c.2-.4.5-.8.7-1.2l.3-.6c.1-.1.1-.2.2-.3a1,1,0,0,1,.4-.5,3,3,0,0,1,1.6-.8,4,4,0,0,1,1.5-.3,56.74,56.74,0,0,1,5.8-.5C588.16,79.7,592,79.9,595.76,80.1Z"/>

<path class="cls-1" d="M791.56,132.6,824,110.5l.2-.1.3.1,15.1,6.7-.3-.1,20.5.1-.6,1.5-3.7-3.3-.3-.3v-.4l.4-26.5v-.3l.1-.3c.8-1.4,1.5-2.8,2.4-4.2l.4-.5.2-.3.1-.1h0l-.1.1h0l.1-.1h0v-.3a4.12,4.12,0,0,0-.3-.8c-.1-.1-.1-.3-.2-.4s-.2-.3-.3-.4l-.4-.6.3-.7c.6-1.2,1.1-2.4,1.7-3.5s1.2-2.3,1.8-3.5a37.9,37.9,0,0,1,2-3.4,11.94,11.94,0,0,0,.8-1.6,8.65,8.65,0,0,0,.7-1.7c.4-1.2.8-2.3,1.1-3.6s.6-2.5.9-3.7c.6-2.5,1.1-5,1.7-7.5l1,1.8c-4.8-1.6-9.8-3.2-14.7-4.5-1.2-.3-2.5-.7-3.7-.9s-2.5-.6-3.7-.8l-1.9-.3-1.8-.3c-.6-.1-1.2-.1-1.8-.2a9.65,9.65,0,0,0-1.7,0h-.5l-.3-.2-1.2-.6c-.4-.2-.8-.4-1.3-.6s-.9-.3-1.3-.5-.9-.3-1.3-.4L833,43c-.5-.1-.9-.1-1.4-.2l-1.4-.1h-1.4a26.35,26.35,0,0,0-2.8.2,28.86,28.86,0,0,0-2.9.4c-1,.1-2,.3-3,.4a8.08,8.08,0,0,1-1.6.1h-1.8l-43-7.7c-1.8-.3-3.6-.7-5.3-.9l-5.4-.8-10.8-1.6-21.6-3.2L709,26.5l-2.7-.4c-.5-.1-.9-.1-1.3-.2l-1.4-.2-5.5-.7-10.8-1.4-21.7-2.9c-7.2-1-14.4-1.9-21.7-3-3.6-.6-7.2-1.2-10.8-1.6l-5.4-.7-5.4-.6c-7.2-.8-14.5-1.5-21.7-2.2s-14.5-1.3-21.8-1.9S564.26,9.6,557,9q-43.5-3.15-87.2-5.6h.1l-11.7.6-5.8.3-5.8.4-11.7.9-11.6,1.2c-3.9.4-7.7.9-11.6,1.4s-7.7,1-11.6,1.6l-11.5,1.8-11.5,2.1c-3.8.7-7.6,1.5-11.5,2.3s-7.6,1.7-11.4,2.5-7.6,1.8-11.4,2.7-7.5,2-11.3,3-7.5,2.2-11.2,3.3-7.4,2.3-11.1,3.6l-5.5,1.9-5.5,2c-3.6,1.4-7.2,2.8-10.8,4.4h-.1l-84.7,31.2-.2.1h-.2l-27.4,3.4c-1.1.1-2.3.3-3.4.5l-3.4.6-6.8,1.1-13.6,2.3-13.5,2.9-6.7,1.4-3.4.7-3.3.9L107.36,88c-4.5,1.1-8.8,2.6-13.2,4l-6.6,2.1c-1.1.4-2.2.7-3.3,1.1l-3.2,1.2-12.8,5c-4.2,1.9-8.4,3.8-12.6,5.6a29.62,29.62,0,0,0-3.1,1.5l-3.1,1.6-6.1,3.2c-2,1.1-3.9,2.3-5.9,3.5l-2.9,1.8c-1,.6-2,1.2-2.9,1.8-3.7,2.6-7.6,5.1-11.1,8.1l-2.7,2.1c-.9.7-1.7,1.5-2.6,2.3a55.5,55.5,0,0,0-4.9,4.8L8,140.2c-.8.9-1.5,1.7-2.2,2.6-.4.4-.7.9-1.1,1.3l-1,1.4c-.7.9-1.3,1.9-1.9,2.8v-.7c2.8,5,5.8,9.9,8.9,14.6,1.6,2.4,3.1,4.8,4.9,7,.9,1.1,1.7,2.3,2.7,3.3l1.5,1.5a3.27,3.27,0,0,0,1.6.9l.6.1-.3.5c-2.7,3.8-5.4,7.6-8,11.5-1.3,1.9-2.6,3.9-3.9,5.8l-1.8,3a10.93,10.93,0,0,0-.8,1.5,4.42,4.42,0,0,0-.6,1.6,4.28,4.28,0,0,1,.5-1.6c.3-.5.5-1,.8-1.6l1.8-3c1.2-2,2.5-4,3.7-5.9q3.75-5.85,7.8-11.7l.3.5a3.89,3.89,0,0,1-2.1-1.1c-.6-.5-1.1-1-1.6-1.5-1-1.1-1.9-2.2-2.8-3.3-1.8-2.3-3.4-4.6-5-7-3.2-4.7-6.3-9.6-9.2-14.5l-.2-.4.2-.4a29,29,0,0,1,1.9-2.9l1-1.4a13.44,13.44,0,0,1,1.1-1.4c.7-.9,1.4-1.8,2.2-2.7l2.3-2.6c1.5-1.8,3.3-3.3,4.9-4.9.9-.8,1.6-1.6,2.5-2.4l2.7-2.2a129.28,129.28,0,0,1,11.1-8.4,29,29,0,0,1,2.9-1.9l2.9-1.9c2-1.2,3.9-2.5,5.9-3.7l6.1-3.3,3.1-1.7c1-.5,2-1.1,3.1-1.6,4.2-2,8.4-3.9,12.6-5.8,4.3-1.7,8.6-3.4,13-5l3.2-1.2c1.1-.4,2.2-.7,3.3-1.1l6.6-2.1c4.4-1.4,8.8-3,13.3-4l13.4-3.6,3.4-.9,3.4-.7,6.8-1.5,13.6-2.9,13.7-2.3,6.8-1.1,3.4-.6c1.1-.2,2.3-.4,3.4-.5l27.5-3.4-.4.1,84.7-31.2h-.1c3.6-1.6,7.3-3.1,10.9-4.4l5.5-2,5.6-1.9c3.7-1.2,7.5-2.4,11.2-3.6s7.5-2.3,11.3-3.3,7.5-2.1,11.4-3,7.6-1.9,11.4-2.8,7.6-1.8,11.5-2.5,7.7-1.6,11.5-2.3L388,8.7l11.6-1.8c3.9-.6,7.8-1.1,11.6-1.6s7.8-1,11.7-1.4l11.7-1.2,11.7-.9,5.9-.4,5.9-.3,11.7-.6h.2q43.65,2.4,87.3,5.6c7.3.5,14.5,1.1,21.8,1.7s14.5,1.2,21.8,1.9,14.5,1.4,21.8,2.2l5.4.6,5.5.7c3.7.4,7.2,1.1,10.8,1.7,7.1,1,14.4,2,21.6,3l21.6,2.9,10.8,1.4,5.4.7,1.4.2c.5.1,1,.1,1.4.2l2.7.4,21.6,3.1,21.6,3.2,10.8,1.6,5.4.8c1.9.3,3.6.6,5.4.9l43,7.7h1.2c.5,0,.9-.1,1.4-.1.9-.1,1.9-.2,2.9-.4s2-.3,3-.4,2.1-.2,3.1-.2h1.6l1.6.1c.5.1,1,.1,1.6.2s1,.2,1.6.3,1,.3,1.5.4a8.8,8.8,0,0,1,1.5.5l1.5.6,1.4.7-.9-.2a16.15,16.15,0,0,1,2.2,0c.7.1,1.4.1,2,.2l2,.3,1.9.4c1.3.3,2.6.5,3.8.9s2.5.6,3.8,1l7.5,2.1c2.5.8,4.9,1.5,7.4,2.4l1.3.4-.3,1.3c-.6,2.5-1.1,5-1.7,7.6s-1.3,5-2.2,7.6c-.3.6-.5,1.3-.8,1.9a16.17,16.17,0,0,1-1,1.8c-.7,1.1-1.4,2.2-2,3.3l-1.8,3.3c-.6,1.1-1.1,2.3-1.7,3.4l-.1-1.3a2.09,2.09,0,0,1,.4.6l.3.6a5.78,5.78,0,0,1,.5,1.4c0,.3.1.6.1.9a1.49,1.49,0,0,1-.1.6,2.07,2.07,0,0,0-.2.6l-.1.1-.1.2h0l-.2.2-.3.5c-.8,1.3-1.6,2.7-2.4,4.1l.1-.5-.9,26.5-.3-.7,3.6,3.4,1.7,1.6-2.3-.1-20.5-.5h-.1l-.1-.1-14.9-7h.5Z"/>

<path class="cls-1" d="M775,76.3s1-.4,2.9-1c.9-.3,2-.7,3.3-1.1.6-.2,1.3-.4,2-.7s1.5-.4,2.3-.6c6.4-1.7,14.8-4,23.3-6.4s17-4.6,23.3-6.4a19.48,19.48,0,0,1,2.3-.6,15.53,15.53,0,0,1,2.1-.4c1.3-.3,2.5-.5,3.4-.7,1.9-.4,3-.6,3-.6s-1,.4-2.9,1c-.9.3-2,.7-3.3,1.1-.6.2-1.3.4-2,.7s-1.5.4-2.3.6c-6.4,1.7-14.8,4-23.3,6.4s-17,4.6-23.3,6.4a19.48,19.48,0,0,1-2.3.6,15.53,15.53,0,0,1-2.1.4c-1.3.3-2.5.5-3.4.7Z"/>

<line class="cls-1" x1="833.56" y1="80.5" x2="824.26" y2="111"/>

<path class="cls-1" d="M562.76,51.1s3.9-.5,10.7-1.4q5.1-.6,12.3-1.5c2.4-.3,4.9-.6,7.6-.9s5.5-.5,8.4-.8c23.4-2.2,54.7-4.7,86-6.2,7.8-.4,15.7-.7,23.4-.9s15.3-.4,22.7-.5,14.5,0,21.2.1c3.4,0,6.6.2,9.8.3s6.2.3,9.2.4,5.8.4,8.4.6,5.2.6,7.6.8,4.6.6,6.6.9c1,.1,2,.3,2.9.4s1.8.3,2.7.5c1.7.3,3.2.6,4.5.8s2.4.6,3.3.8c1.8.4,2.7.7,2.7.7s-1-.2-2.8-.6c-.9-.2-2-.4-3.3-.7s-2.8-.4-4.5-.7c-.8-.1-1.7-.3-2.7-.4s-1.9-.2-3-.3c-2.1-.2-4.3-.5-6.6-.7-4.8-.4-10.1-.7-16-1.1-2.9-.1-6-.3-9.2-.4l-9.8-.3c-6.7-.1-13.8-.2-21.2-.1s-14.9.2-22.6.5-15.5.6-23.4.9c-31.3,1.5-62.6,4.1-86,6.2-2.9.3-5.7.5-8.4.8s-5.2.4-7.6.6c-4.8.4-8.9.8-12.3,1.1Z"/>

</svg>