<?xml version="1.0" encoding="utf-8"?>
<!-- Generator: Adobe Illustrator 21.0.0, SVG Export Plug-In . SVG Version: 6.00 Build 0)  -->
<svg version="1.1" id="Layer_1" xmlns="http://www.w3.org/2000/svg" xmlns:xlink="http://www.w3.org/1999/xlink" x="0px" y="0px"
	 viewBox="0 0 171 429" style="enable-background:new 0 0 171 429;" xml:space="preserve">
<style type="text/css">
	.st0{fill:none;stroke:#000000;stroke-width:9;stroke-miterlimit:10;}
	.st1{fill:none;stroke:#000000;stroke-width:3;stroke-miterlimit:10;}
</style>
<g>
	<path d="M161.211,133.33c-0.347-8.967-2.976-19.408-7.159-27.371c-4.116-8.183-9.901-14.903-16.926-19.811
		c-6.998-4.939-15.241-8.131-24.176-10.092c-9.039-2.042-18.932-2.881-28.185-2.833c-9.224-0.25-19.144,0.409-28.186,2.319
		c-8.943,1.835-17.206,4.956-24.212,9.943c-7.01,4.981-12.774,11.866-16.868,20.276c-4.185,8.254-6.737,18.953-7.101,28.172
		c-0.834,8.873,0.379,19.695,3.733,28.009c3.205,8.295,8.428,15.004,15.406,19.79c6.973,4.793,15.717,7.704,25.539,9.393
		c10.267,1.792,21.232,2.342,31.637,2.141c10.498,0.083,21.495-0.553,31.849-2.364c9.961-1.707,18.872-4.591,26.08-9.253
		c7.226-4.646,12.712-11.189,16.163-19.377c3.604-8.199,5.076-19.047,4.384-27.921c0.384,0.012,0.576,0.018,0.959,0.029
		c0.862,9.087-0.419,20.197-3.901,28.692c-3.332,8.487-8.758,15.325-16.027,20.195c-7.427,5.08-17.797,8.371-26.616,9.614
		c-10.876,1.917-21.885,2.256-32.891,2.589c-11.03-0.036-22.058-0.085-32.995-1.753c-8.857-1.029-19.369-4.164-26.852-9.187
		c-7.366-4.836-12.913-11.776-16.351-20.542c-3.623-8.884-4.956-20.437-4.154-29.936c0.287-9.938,2.954-21.477,7.36-30.419
		c3.491-8.047,10.399-16.728,17.714-21.654c7.368-5.242,16.073-8.419,25.523-10.255c9.604-1.908,20.036-2.53,29.809-2.301
		c9.824-0.068,20.239,0.683,29.877,2.657c9.506,1.901,18.286,5.077,25.757,10.222c7.344,4.798,14.367,13.301,17.969,21.256
		c4.477,8.74,7.25,20.105,7.631,29.891C164.093,133.401,163.135,133.377,161.211,133.33z"/>
</g>
<line class="st0" x1="240.5" y1="172.5" x2="240.5" y2="172.5"/>
<g>
	<path d="M57.755,169.018c-2.108-0.696-4.177-1.569-6.146-2.668c-1.978-1.084-3.84-2.413-5.549-3.972
		c-1.694-1.571-3.214-3.419-4.286-5.658c-1.082-2.2-1.482-5.069-0.545-7.748l0.383-1.096l1.338-0.087
		c2.576-0.168,5.151-0.394,7.724-0.662l1.223-0.127l0.864,1.259c1.507,2.195,1.771,5.031,1.184,7.243
		c-0.558,2.26-1.678,4.156-2.993,5.768c-1.317,1.616-2.866,2.957-4.533,4.051c-1.69,1.067-3.476,1.927-5.373,2.444l-0.263-0.425
		c1.264-1.477,2.486-2.849,3.569-4.286c1.117-1.397,2.051-2.886,2.854-4.342c0.783-1.467,1.381-2.961,1.675-4.346
		c0.292-1.404,0.226-2.557-0.179-3.599l2.087,1.131c-2.583-0.143-5.166-0.245-7.747-0.288l1.72-1.183
		c-0.668,1.447-0.689,3.277-0.058,5.111c0.614,1.834,1.738,3.597,3.071,5.203c1.341,1.608,2.904,3.092,4.638,4.371
		c1.733,1.28,3.587,2.428,5.531,3.445L57.755,169.018z"/>
</g>
<g>
	<path d="M110.755,166.018c-2.108-0.696-4.177-1.569-6.146-2.668c-1.978-1.084-3.84-2.413-5.549-3.972
		c-1.694-1.571-3.214-3.419-4.286-5.658c-1.082-2.2-1.482-5.069-0.545-7.748l0.383-1.096l1.338-0.087
		c2.576-0.168,5.151-0.394,7.724-0.662l1.223-0.127l0.864,1.259c1.507,2.195,1.771,5.031,1.184,7.243
		c-0.558,2.26-1.678,4.156-2.993,5.768c-1.317,1.616-2.866,2.957-4.533,4.051c-1.69,1.067-3.476,1.927-5.373,2.444l-0.263-0.425
		c1.264-1.477,2.486-2.849,3.569-4.286c1.117-1.397,2.051-2.886,2.854-4.342c0.783-1.467,1.381-2.961,1.675-4.346
		c0.292-1.404,0.226-2.557-0.179-3.599l2.087,1.131c-2.583-0.143-5.166-0.245-7.747-0.288l1.72-1.183
		c-0.668,1.447-0.689,3.277-0.058,5.111c0.614,1.834,1.738,3.597,3.071,5.203c1.341,1.608,2.904,3.092,4.638,4.371
		c1.733,1.28,3.587,2.428,5.531,3.445L110.755,166.018z"/>
</g>
<g>
	<path d="M106,201.5l0.447,14.236l0.503,14.228c0.307,9.484,0.696,18.963,1.204,28.43c0.484,9.466,1.037,18.929,1.827,28.342
		c0.396,4.702,0.847,9.405,1.506,14.016c0.336,2.282,0.721,4.621,1.29,6.632c0.137,0.48,0.316,0.966,0.436,1.188
		c0.025,0.048,0.048,0.079,0.019,0.038c-0.037-0.033-0.08-0.141-0.438-0.359c-0.186-0.107-0.456-0.214-0.815-0.247
		c-0.261-0.01-0.117-0.007-0.117-0.007l0.076-0.004l0.306-0.012c0.814-0.068,1.634-0.316,2.447-0.734
		c1.63-0.842,3.164-2.309,4.497-3.997c1.341-1.693,2.519-3.608,3.578-5.606c2.106-4.016,3.8-8.345,5.255-12.76
		c1.455-4.42,2.664-8.948,3.722-13.516c1.071-4.567,1.995-9.18,2.791-13.82c0.797-4.64,1.471-9.307,2.045-13.99l0.41-3.515
		c0.127-1.171,0.266-2.363,0.347-3.461c0.151-2.257,0.157-4.583,0.12-6.923c-0.088-4.689-0.396-9.437-0.442-14.257
		c-0.013-2.412,0.017-4.846,0.303-7.322c0.152-1.238,0.361-2.488,0.718-3.748c0.363-1.254,0.863-2.547,1.768-3.736l2.392,1.81
		c-1.02,1.493-1.408,3.782-1.582,5.998c-0.163,2.255-0.143,4.579-0.049,6.913c0.191,4.676,0.647,9.401,0.89,14.205
		c0.118,2.406,0.191,4.834,0.057,7.319c-0.072,1.272-0.19,2.442-0.295,3.633l-0.348,3.568c-0.493,4.756-1.089,9.504-1.811,14.24
		c-1.44,9.47-3.377,18.901-6.332,28.13c-1.486,4.61-3.206,9.184-5.529,13.577c-1.166,2.194-2.479,4.347-4.087,6.379
		c-1.612,2.013-3.53,3.969-6.13,5.332c-1.298,0.669-2.783,1.145-4.34,1.269l-0.583,0.026l-0.146,0.005
		c-0.074-0.002-0.005,0.013-0.339-0.009c-0.508-0.039-0.918-0.207-1.234-0.382c-0.617-0.365-0.865-0.699-1.081-0.966
		c-0.21-0.277-0.338-0.502-0.453-0.715c-0.429-0.833-0.623-1.481-0.823-2.138c-0.719-2.564-1.045-4.936-1.391-7.349
		c-0.641-4.799-1.053-9.56-1.412-14.324c-0.685-9.526-1.072-19.041-1.325-28.556c-0.218-9.516-0.315-19.027-0.33-28.537
		c0.009-4.755,0.08-9.51,0.149-14.264c0.064-4.754,0.172-9.507,0.331-14.258H106z"/>
</g>
<path class="st1" d="M35.971,193.299c-10.424,5.105-15.318,16.467-10.942,25.402L26,220.5c4.541,6,0.589,25.083,1.672,36.489
	c4.014,42.275,14.811,72.511,27.517,72.511c3.764,0,6.811-48.752,6.811-109"/>
<path class="st1" d="M74.5,383.5c0,14.371-7.604,26-17,26V407v-69"/>
<path class="st1" d="M103.5,386.682c0,19.798,7.604,35.818,17,35.818v-3.444V324"/>
<g>
	<path d="M65.666,236.612l0.21-0.524l0.184-0.078l0.078,0.184l-0.063-0.027l0.036,0.09l-0.051,0.136l-0.09,0.036l-0.099,0.804
		l-0.22,0.371C65.519,237.551,65.523,237.221,65.666,236.612z M65.873,237.881l0.048-0.13l0.292,0.036
		c0.219,0.339,0.311,0.556,0.274,0.65l0.491,0.114l0.126,0.054l0.147,0.214l0.066,0.021l1.144-0.376l0.015-0.226l0.972-1.666
		l0.298,0.195l0.136,0.051c0.052-0.132,0.166-0.164,0.34-0.094l-0.03,0.069l-0.006,0.223l-0.452-0.03
		c-0.057,0.151-0.249,0.253-0.575,0.308l0.22,0.395l0.093-0.042l-0.042-0.093l0.054-0.126l0.136,0.051l0.178,0.683l0.136,0.051
		l0.132-0.325l0.184-0.078l0.079,0.184l0.066,0.021l0.048-0.13l-0.036-0.09l0.027-0.063l0.093-0.042l0.063,0.027l-0.063,0.355
		l-0.054,0.126c-0.253,0.63-0.683,1.07-1.288,1.319l-0.241-0.171c-0.032,0.086-0.135,0.095-0.31,0.024l0.036,0.09l-0.027,0.063
		l-0.66,0.121l-0.036-0.09l-0.578-0.084l0.027-0.063l0.09-0.036l0.027-0.063l-0.069-0.03l-0.681-0.195
		c-0.323-0.131-0.599-0.522-0.829-1.174L65.873,237.881z M66.574,234.155l0.184-0.078l1.117,0.451l0.036,0.09l0.093-0.042
		l0.063,0.027l0.084,0.187l-0.057,0.132c-0.094,0.115-0.251,0.127-0.473,0.037l0.042,0.093l-0.058,0.132l-0.22-0.012l-0.042-0.093
		l-0.126-0.054l-0.027,0.063l0.126,0.054l-1.168,0.832l-0.075-0.189l0.887-1.087c0.039-0.088-0.11-0.225-0.446-0.41L66.574,234.155z
		 M66.582,238.888l0.09-0.036l0.066,0.021l0.042,0.094l0.126,0.054l0.027-0.063c-0.13-0.056-0.178-0.126-0.142-0.211l0.093-0.042
		l-0.136-0.051L66.582,238.888z M67.008,235.167l0.063,0.027l-0.078-0.184l-0.063-0.027L67.008,235.167z M67.464,238.789
		l0.129,0.048l0.027-0.063l-0.132-0.057L67.464,238.789z M67.621,239.156l0.078,0.184c0.123-0.052,0.316-0.026,0.582,0.078
		l-0.042-0.093l0.051-0.136c0.179,0.072,0.303,0.021,0.374-0.153l-0.136-0.051c-0.052,0.132-0.166,0.164-0.34,0.093l0.036,0.09
		l-0.027,0.063l-0.063-0.027l-0.037-0.09l-0.069-0.03l0.343-0.467c-0.099-0.039-0.247,0.08-0.445,0.355l-0.199-0.078l0.036,0.09
		l-0.021,0.067l-0.096,0.033L67.621,239.156z M68.437,238.638l0.132,0.057l0.184-0.079l0.021-0.066l-0.063-0.027L68.437,238.638z
		 M68.605,238.402l0.132,0.058l0.03-0.069l-0.136-0.051L68.605,238.402z M68.648,238.878l0.129,0.048l0.027-0.063l-0.135-0.051
		L68.648,238.878z M68.925,238.758l0.126,0.054l0.027-0.063l-0.126-0.054L68.925,238.758z M68.946,239.074l0.042,0.094l0.199,0.078
		l0.012-0.22l-0.069-0.03L68.946,239.074z M69.042,238.659c0.034-0.091,0.118-0.11,0.25-0.058l-0.078-0.184l-0.226-0.015
		l-0.027,0.063L69.042,238.659z M69.371,238.785l0.132,0.057l0.024-0.072l-0.13-0.048L69.371,238.785z M69.394,236.433l0.057-0.132
		l0.262,0.105l-0.027,0.063L69.394,236.433z M69.478,236.237l0.021-0.066c0.038-0.088,0.124-0.106,0.256-0.054l-0.058-0.25
		l0.367-0.157l-0.021,0.449l-0.503,0.105L69.478,236.237z M69.554,238.324l0.184,0.304l0.063,0.027l0.03-0.069l-0.03-0.313
		l-0.063-0.027L69.554,238.324z M69.686,237.234l0.277-0.121l0.042,0.093l-0.03,0.069l-0.063-0.027l0.036,0.09l-0.051,0.136
		l-0.132-0.057L69.686,237.234z M69.885,238.077l0.063,0.027l0.184-0.079l-0.063-0.027L69.885,238.077z M70.079,240.447
		c0.034-0.091,0.415-0.092,1.142-0.004l1.226-0.199l0.331,0.135l0.048-0.129l-0.063-0.027l-0.226-0.015l0.027-0.063l0.723-0.476
		l-0.036-0.09l0.199-0.304l0.078-0.199l0.063,0.027l0.168,0.147l0.093-0.042l0.036,0.09l-0.021,0.066
		c-0.244-0.03-0.379-0.006-0.407,0.073l0.166,0.138l-0.078,0.199c-0.447,0.633-0.806,0.896-1.075,0.79l0.036,0.09l-0.021,0.067
		l-0.093,0.042c-0.088,0.217,0.042,0.396,0.392,0.536l0.036,0.09l-0.051,0.135l-0.184,0.079l-2.43-0.971L70.079,240.447z
		 M70.342,235.972l0.027-0.063l0.199,0.078l0.199,0.46l-0.057,0.133c-0.084-0.036-0.155,0.011-0.211,0.141l-0.063-0.027l-0.036-0.09
		l-0.069-0.03l0.09-0.037l0.027-0.063L70.342,235.972z M70.782,236.222l0.184-0.079l0.063,0.027
		c0.084,0.036,0.093,0.142,0.027,0.319l0.129,0.048l-0.078,0.199L70.782,236.222z M70.935,235.448l0.027-0.063
		c0.052-0.132,0.38-0.128,0.985,0.012l0.199,0.078l-0.051,0.136l0.13,0.048l0.057-0.132l0.325,0.132l0.079,0.184
		c-0.02,0.093,0.086,0.211,0.319,0.355l0.021-0.067l0.184-0.078c-0.034,0.09,0.015,0.162,0.147,0.214l0.036,0.09l-0.021,0.066
		c-0.045,0.11-0.161,0.141-0.346,0.09l-0.027,0.063l0.132,0.057l-0.09,0.036l-0.051,0.136l0.172,0.142l0.274-0.115
		c-0.056,0.13-0.039,0.213,0.051,0.247l0.063,0.027l0.136-0.331c-0.216-0.099-0.3-0.207-0.25-0.325l0.027-0.063l0.066,0.021
		l0.036,0.09l0.069,0.03l0.09-0.036l0.024-0.072l-0.036-0.09l0.09-0.036l0.066,0.021l-0.079,0.199l0.09-0.036l0.066,0.021
		c-0.062,0.283-0.048,0.442,0.042,0.476l0.126,0.054l0.093-0.042l0.069,0.03l-0.057,0.132c-0.13-0.056-0.213-0.039-0.247,0.051
		l-0.027,0.063l0.325,0.132c0.056-0.13,0.126-0.177,0.21-0.142l0.136,0.051l-0.057,0.132l-0.126-0.054l-0.057,0.132l0.129,0.43
		l-0.027,0.063l-0.256-0.102l-0.006,0.379c-0.064-0.025-0.164,0.037-0.298,0.187l0.262,0.105l-0.132,0.325l-0.277,0.121
		l-0.079-0.184l0.147-0.168l-0.078-0.184l0.093-0.042l-0.121-0.659l-0.407-0.31l-0.289-0.042l-0.121-0.277l-0.403,0.066l-0.069-0.03
		c-0.086-0.032-0.1-0.188-0.04-0.467l0.262-0.277l-0.063-0.027l-0.446-0.409l-0.079,0.199l-0.069-0.03l-0.036-0.09l-0.094,0.042
		l-0.069-0.03l-0.298-0.195l0.027-0.063c0.034-0.09,0.139-0.1,0.313-0.03l0.054-0.126l-0.069-0.03l-0.446-0.027l0.042,0.094
		l-0.027,0.063l-0.093,0.042l-0.063-0.027l-0.042-0.093l0.09-0.036l0.057-0.132l-0.069-0.03L70.935,235.448z M71.212,236.474
		l0.051-0.135l0.079,0.184L71.212,236.474z M71.934,240.96l0.13,0.048l0.054-0.126L71.934,240.96z M72.169,241.129l0.129,0.048
		l0.027-0.063l-0.129-0.048L72.169,241.129z M72.7,236.38l0.126,0.054l0.027-0.063l-0.126-0.054L72.7,236.38z M72.805,236.883
		l0.13,0.048l0.027-0.063l-0.136-0.051L72.805,236.883z M73.027,234.992l0.024-0.073l0.132,0.058l-0.027,0.063L73.027,234.992z
		 M73.065,240.039l0.13,0.048l0.027-0.063l-0.136-0.051L73.065,240.039z M73.136,234.724l0.021-0.066l0.132,0.057l-0.027,0.063
		L73.136,234.724z M73.313,235.407l0.027-0.063l0.136,0.051l-0.03,0.069L73.313,235.407z M73.947,238.027l0.13,0.048l0.054-0.126
		l-0.132-0.057L73.947,238.027z M75.891,235.828l0.027-0.063l0.184-0.079l-0.079,0.199L75.891,235.828z M76.165,236.096l0.051-0.136
		l0.069,0.03l-0.054,0.126L76.165,236.096z"/>
	<path d="M67.241,230.82l0.102-0.129l0.226-0.022c0.125,0.145,0.165,0.244,0.123,0.297l-0.051,0.064l-0.064-0.051l-0.025,0.032
		l0.007,0.058l-0.025,0.032l-0.064-0.051c-0.051,0.064-0.096,0.081-0.135,0.05C67.238,230.957,67.208,230.863,67.241,230.82z
		 M67.632,229.021c0.248-0.182,0.423-0.232,0.527-0.15l0.007,0.058l0.032,0.025l0.181,0.091c0.083,0.314,0.071,0.546-0.034,0.695
		c-0.183,0.077-0.374,0.08-0.573,0.009l-0.124-0.097l-0.193-0.352l0.058-0.007L67.632,229.021z M67.463,230.682l0.025-0.032
		l0.064,0.051l-0.025,0.032L67.463,230.682z M67.675,232.18l0.051-0.064l0.115-0.014l0.032,0.025l-0.134,0.104L67.675,232.18z
		 M67.799,232.618l0.051-0.064l0.032,0.025l0.014,0.115l-0.051,0.064l-0.032-0.025L67.799,232.618z M67.982,231.856l0.058-0.007
		l-0.007-0.058l0.021-0.027l0.191-0.11l0.156,0.123c0.06,0.146,0.064,0.25,0.013,0.315c-0.119,0.062-0.205,0.083-0.256,0.059
		C68.004,232.031,67.946,231.932,67.982,231.856z M67.975,230.562l0.111-0.008l-0.046,0.059L67.975,230.562z M68.385,229.911
		l0.058-0.007l0.025-0.032l0.007,0.058l0.064,0.051c0.082-0.104,0.142-0.14,0.182-0.109l0.007,0.058l0.032,0.025l0.533,0.107
		l0.046,0.141l0.032,0.025l0.058-0.007l0.032,0.025l0.007,0.058l-0.025,0.032l0.052-0.011l0.064,0.051
		c0.036,0.028,0.027,0.105-0.026,0.231l0.053-0.001l0.032,0.025l0.026,0.221l-0.052,0.011l-0.025,0.032l0.001,0.054l0.032,0.025
		l0.244,0.088l0.007,0.058l-0.025,0.032c-0.034,0.043-0.104,0.022-0.212-0.062l-0.129,0.098l0.007,0.058l0.225,0.178l-0.051,0.064
		l-0.29-0.229c-0.119,0.15-0.251,0.234-0.398,0.251l-0.077,0.097c0.093,0.096,0.119,0.169,0.08,0.22l-0.115,0.014l-0.15-0.328
		c-0.045,0.058-0.185,0.017-0.418-0.121l-0.007-0.058c-0.149,0.189-0.246,0.268-0.289,0.233l0.044-0.122l0.155-0.13
		c-0.202-0.311-0.24-0.546-0.113-0.707l0.032,0.025l0.058-0.007c0.12-0.248,0.151-0.395,0.094-0.439l0.058-0.007l0.102-0.129
		C68.366,230,68.351,229.954,68.385,229.911z M68.114,231.038l0.122,0.044l0.051-0.064l-0.032-0.025l-0.115,0.013L68.114,231.038z
		 M68.28,229.524l0.027,0.021l0.018,0.11l-0.058,0.007l-0.032-0.025l-0.001-0.053L68.28,229.524z M68.456,231.255
		c0.136,0.049,0.24,0.027,0.313-0.066c0.03-0.075,0.02-0.15-0.032-0.225l-0.211-0.062l-0.098,0.124L68.456,231.255z M68.592,231.415
		l0.11-0.018l-0.059-0.046L68.592,231.415z M68.758,232.904l0.111-0.008l0.032,0.025l-0.047,0.059L68.758,232.904z M68.776,229.349
		l0.058-0.007l0.032,0.025l0.006,0.058l-0.046,0.059l-0.032-0.025L68.776,229.349z M68.864,230.341
		c0.043,0.034,0.09,0.019,0.141-0.046l0.058-0.007l0.032,0.025l0.04-0.117l0.108-0.071
		C69.185,230.081,69.059,230.152,68.864,230.341z M69.53,232.389l0.032,0.025l0.051-0.064l-0.032-0.025L69.53,232.389z
		 M70.88,231.46l0.058-0.007l1.079,0.851l0.007,0.058l0.032,0.025l-0.162,0.073c-0.051,0.168-0.061,0.265-0.029,0.291l0.161,0.127
		c0.064,0.051,0.13,0.033,0.198-0.053l0.141-0.246l0.032,0.025c0.229,0.181,0.331,0.397,0.306,0.65l0.136,0.159l0.025-0.032
		l0.005-0.205l0.021-0.027l0.115-0.014l0.852,0.62l-0.025,0.032l0.058-0.007l2.19,1.727l0.525-0.666l0.11-0.018l0.097,0.076
		l0.014,0.115l-1.977,2.507l-0.111,0.008l-0.097-0.076l-0.012-0.105l0.55-0.698l-2.732-2.154l-0.021-0.173l0.051-0.064l0.219-0.08
		c0.034-0.043,0.033-0.148-0.003-0.316l-0.058,0.007l-0.032-0.025l-0.007-0.058l-0.032-0.025c-0.29,0.323-0.478,0.451-0.563,0.383
		l-0.886-0.698l-0.006-0.058l-0.058,0.007l-0.698-0.55l-0.524,0.666l-0.169,0.015c-0.054-0.042-0.053-0.109,0.001-0.2
		C70.289,232.53,70.696,231.907,70.88,231.46z M69.984,231.537l0.205,0.005l0.032,0.025l0.015,0.168l-0.072,0.091
		c-0.072,0.047-0.16,0.03-0.264-0.051L69.984,231.537z M70.473,232.628l0.13,0.155l0.122,0.044l0.025-0.032
		c0.085-0.107,0.102-0.195,0.052-0.264l-0.091-0.072l-0.115,0.014L70.473,232.628z M71.247,233.082l0.046,0.141l0.032,0.025
		l0.025-0.032l0.058-0.207l-0.032-0.025L71.247,233.082z M71.334,231.436c0.158-0.148,0.297-0.174,0.419-0.079
		c0.066,0.116,0.085,0.201,0.06,0.256l-0.123,0.156l-0.115,0.014l-0.097-0.076l0.051-0.064l-0.032-0.025l-0.051,0.064l0.007,0.058
		l-0.091-0.072L71.334,231.436z M71.776,233.194l0.064,0.051l0.051-0.064l-0.064-0.051L71.776,233.194z M72.061,233.418l0.064,0.051
		l0.051-0.064l-0.064-0.051L72.061,233.418z M72.227,233.34l0.032,0.025l0.047-0.059l-0.032-0.025L72.227,233.34z M72.544,233.391
		l0.283,0.171l0.025-0.032l-0.2-0.21l-0.058,0.007L72.544,233.391z M72.752,233.911l0.064,0.051l0.051-0.064L72.752,233.911z
		 M72.892,233.612l0.091,0.072l0.025-0.032l-0.091-0.072L72.892,233.612z M73.05,234.25l0.097,0.076l-0.014-0.115l-0.032-0.025
		L73.05,234.25z M73.835,234.304l0.097,0.076l-0.014-0.115l-0.058,0.007L73.835,234.304z"/>
	<path d="M68.149,228.571l0.057-0.059l0.024,0.024l-0.057,0.059L68.149,228.571z M68.368,228.669l0.286-0.294l0.264-0.164
		l0.372-0.382l0.106-0.001l-0.029,0.029l0.107,0.047l0.023-0.024l-0.001-0.106l-0.102-0.052l0.128-0.132l0.027-0.136l0.129-0.084
		l0.108,0.104c-0.051,0.053-0.039,0.115,0.037,0.188l-0.163,0.109l-0.029,0.029l0.054,0.053l0.052-0.054l0.029,0.029l0.026,0.13
		c0.108-0.111,0.208-0.122,0.299-0.033c0.042-0.042,0.11-0.061,0.208-0.056l0.028-0.029l-0.054-0.053l0.158-0.104l-0.029-0.029
		l-0.102-0.051l0.023-0.025c0.092-0.088,0.155-0.116,0.188-0.085l-0.001-0.058l0.024-0.024c0.035-0.036,0.144,0.016,0.326,0.155
		l0.001,0.058l0.106-0.001l0.001,0.048l0.128-0.132l0.03,0.029c-0.051,0.052-0.05,0.104,0.002,0.154l-0.028,0.03l-0.048,0
		l-0.029,0.029l0.054,0.053l0.053-0.006l0.029,0.029l0.001,0.058l-0.024,0.024l0.214,0.103l-0.004,0.053l0.029,0.029l0.406,0.337
		l0.052-0.054c0.036,0.035,0.027,0.081-0.027,0.136l0.166,0.104l-0.028,0.03l0.053-0.006l0.113,0.11l-0.004,0.053l0.058-0.001
		l0.024,0.024l0.001,0.058l0.053-0.005l0.03,0.028l-0.004,0.053l0.058,0l0.054,0.052l0.079,0.134l0.112,0.052
		c-0.058,0.491-0.108,0.759-0.153,0.805l0.029,0.028l0.081-0.083l0.016-0.242l0.029,0.028l0.144,0.607l-0.293,0.144l-0.023,0.025
		l0.024,0.023l0.107,0.057l0.033,0.241l0.024,0.024c0.062,0.061,0.153,0.095,0.272,0.103l0.004,0.271l0.107,0.047l0.104-0.108
		c0.062-0.188,0.08-0.294,0.054-0.32l0.048,0l0.028-0.03l0.052-0.102l-0.029-0.029c-0.07,0.072-0.133,0.081-0.188,0.027
		c0.076-0.104,0.094-0.175,0.055-0.213l-0.108-0.104l-0.195-0.133c-0.052-0.051-0.035-0.177,0.053-0.378l0.108,0.163l0.025,0.023
		l0.058,0l0.03,0.028l-0.029,0.03l-0.11,0.055l0.137,0.133l0.026,0.13l0.028-0.029l0.104-0.48l0.052-0.054l0.106-0.002
		c0.124,0.121,0.159,0.209,0.105,0.265l0.03,0.028l0.131,0.022l0.005,0.053l-0.028,0.029l0.058-0.001l0.104,0.158l0.083,0.081
		l0.052-0.054l0.163,0.264c0.07-0.072,0.159-0.055,0.267,0.049l0.108,0.105l0.031,0.135l0.106-0.001
		c0.056,0.054,0.048,0.117-0.021,0.189l1.383,1.343c0.052,0.051-0.071,0.23-0.37,0.537l-0.129,0.084l0.084,0.129l0.159-0.056
		l0.104-0.108l0.235-0.458l0.024-0.024l1.358,1.319l0.605-0.623c0.036,0.035,0.099,0.007,0.188-0.085l0.209,0.099l0.054,0.052
		l0.006,0.111l-0.024,0.024c-0.056-0.054-0.12-0.043-0.193,0.032l-0.235,0.134l-0.004,0.053l-0.153,0.109l-0.029,0.029l-0.027,0.136
		l-0.029-0.029l-0.047,0.107l-0.058,0l-0.024,0.024l-0.051,0.112l-0.13,0.026l-0.004,0.053l-0.105,0.06l-0.261,0.376
		c-0.036-0.035-0.081-0.024-0.135,0.031l0,0.048l-0.363,0.276l-0.004,0.053l-0.081,0.083l-0.054-0.052l-0.128,0.132l0.054,0.052
		l-0.157,0.162l-0.29,0.347l-0.103-0.1c-0.056-0.054,0.029-0.197,0.255-0.429l0.133-0.137c0.056,0.054,0.101,0.063,0.136,0.027
		l0.024-0.025l-0.083-0.081l0.214-0.221l-0.024-0.024l-0.818-0.738l-0.648-0.687c-0.15-0.146-0.294-0.197-0.433-0.153
		c-0.085-0.076-0.201-0.12-0.35-0.13c-0.036-0.035-0.019-0.088,0.051-0.16l-0.407-0.396l-0.026-0.13l-0.028,0.03l-0.001-0.058
		l-0.054-0.052l-0.052,0.054l-0.054-0.052l0.048-0.001l0.109-0.113l-0.054-0.052c0.368-0.379,0.508-0.612,0.42-0.697l-0.49-0.477
		l0.024-0.024l0.159-0.056l0.004-0.053l0.029-0.029l0.101-0.055c-0.029-0.028-0.188,0.027-0.476,0.167l-0.314,0.647l-0.048,0
		l-1.113-1.081l0.053-0.054l0.078,0.076c0.083-0.085,0.099-0.209,0.048-0.373l-0.052,0.054l0.054,0.052l-0.263,0.164l-0.137-0.133
		l-0.377-0.309l-0.354-0.401l-0.083-0.081c-0.029-0.028-0.013-0.117,0.049-0.267c-0.088-0.085-0.177-0.083-0.266,0.009l-0.327-0.213
		l0.004-0.053l-0.029-0.029l-0.053,0.006l-0.029-0.029l-0.079-0.134l0.052-0.054c0.092,0.089,0.155,0.116,0.19,0.08l0.022-0.131
		l0.346-0.141c-0.036-0.035-0.011-0.116,0.074-0.243l-0.05-0.105l-0.106,0.001l-0.031-0.135l-0.058,0l-0.076,0.079
		c-0.127,0.131-0.204,0.25-0.232,0.356l-0.268,0.158l-0.27-0.262c-0.126-0.053-0.208-0.06-0.247-0.021l-0.294-0.286
		c-0.036-0.035-0.027-0.08,0.027-0.136l-0.059-0.057c-0.042-0.041-0.13-0.003-0.264,0.115l-0.049,0.267l-0.075,0.137
		c-0.105,0.108-0.213,0.108-0.324,0l-0.048,0l-0.157,0.162L68.368,228.669z M69.106,228.233l0.105-0.108l0.054,0.052l-0.052,0.054
		L69.106,228.233z M69.423,228.123l0.054,0.052l0.216-0.056l-0.113-0.158L69.423,228.123z M69.507,228.252l0.106-0.001l-0.054-0.053
		L69.507,228.252z M69.604,227.554l0.029,0.029l0.076-0.079l-0.029-0.028L69.604,227.554z M69.683,227.316l0.128-0.132l0.079,0.076
		l-0.076,0.078l-0.106,0.002L69.683,227.316z M69.718,228.094l0.056,0.159l0.053-0.006l0.051-0.102l0.129-0.084l0.029-0.029
		l-0.024-0.024C69.967,228.054,69.869,228.083,69.718,228.094z M69.911,226.699l0.108,0.104l0.166,0.104l-0.188,0.027l-0.028,0.03
		l0.083,0.081l-0.024,0.025c-0.116,0.008-0.197,0.037-0.245,0.085C69.733,227.108,69.775,226.956,69.911,226.699z M69.87,227.555
		l0.106-0.001l-0.105,0.108L69.87,227.555z M70.051,227.045l0.029-0.029l0.106-0.001l-0.004,0.053l0.029,0.029l0.214,0.103
		l-0.105,0.108l0.058-0.001l0.054,0.053l-0.105,0.107l-0.165,0.002l-0.024-0.023l0.053-0.054l-0.165,0.002l-0.055-0.11l0.024-0.024
		l0.111-0.007l0.051-0.16l-0.053,0.006L70.051,227.045z M70.115,227.793l0.052-0.054l0.025,0.023l-0.053,0.054L70.115,227.793z
		 M70.136,227.281l0.03,0.029l0.052-0.054l-0.029-0.028L70.136,227.281z M70.314,226.882l0.054,0.052l-0.052,0.054L70.314,226.882z
		 M70.424,227.093l0.028-0.029l0.16,0.002l0.001,0.048l-0.029,0.03l-0.131-0.022L70.424,227.093z M70.543,228l0.03,0.029
		l0.052-0.054l-0.029-0.028L70.543,228z M70.546,227.84l0.102,0.052l0.057-0.059l-0.107-0.047L70.546,227.84z M70.771,229.012
		l0.059,0.057l0.029-0.03l0.047-0.107l-0.053-0.004l-0.025-0.024L70.771,229.012z M70.789,227.915l0.078,0.076l0.189,0.031
		l0.001,0.106l0.108,0.105l0.106-0.001l0.053-0.054l-0.136-0.027l-0.108-0.105l0.004-0.053l-0.029-0.028l-0.165,0.002l-0.024-0.023
		l-0.001-0.058l-0.024-0.024L70.789,227.915z M70.85,228.822l0.054,0.052l-0.001-0.106L70.85,228.822z M70.869,228.155l0.001,0.058
		l0.024,0.024l0.081-0.083L70.869,228.155z M71.029,226.146l0.157-0.162l0.054,0.053l-0.157,0.162L71.029,226.146z M71.088,228.577
		l0.106-0.001l0-0.048l-0.03-0.029L71.088,228.577z M71.102,229.544l0.054,0.052l0.029-0.029l-0.054-0.052L71.102,229.544z
		 M71.167,228.339l0.054,0.052l0.029-0.029l-0.054-0.053L71.167,228.339z M71.238,229.571l0.024,0.024l0.134-0.079l-0.053-0.004
		l-0.024-0.024c-0.036-0.035-0.021-0.125,0.044-0.271l-0.026-0.13l-0.029-0.028l-0.024,0.024L71.238,229.571z M71.291,225.877
		l0.262-0.27l0.054,0.053l-0.262,0.27L71.291,225.877z M71.292,229.671l0.029,0.029l0.052-0.054l-0.029-0.029L71.292,229.671z
		 M71.45,229.51l0.054,0.052l-0.001-0.106L71.45,229.51z M71.464,228.523l0.084,0.129l-0.005-0.053l0.052-0.054l0.085,0.235
		l0.129-0.132l-0.048,0.001l-0.054-0.053l-0.005-0.053l-0.024-0.024c-0.045,0.046-0.106,0.037-0.184-0.026L71.464,228.523z
		 M71.53,229.75l0.029,0.028l0.053-0.054l-0.03-0.029L71.53,229.75z M71.611,229.619l0.136,0.076l0.052-0.112l-0.025-0.024
		l-0.106,0.002L71.611,229.619z M71.636,227.689l0.052-0.054l0.054,0.052l-0.052,0.054L71.636,227.689z M71.667,227.824l0.213,0.045
		l0.029,0.029l-0.052,0.054l-0.054-0.052l-0.004,0.053l-0.052,0.054l-0.079-0.076L71.667,227.824z M71.685,229.052l0.029,0.028
		l0.106-0.001l-0.029-0.029L71.685,229.052z M71.688,229.265l0.16,0.002l0.029-0.029l-0.029-0.028l-0.106,0.001L71.688,229.265z
		 M71.699,230.067l0.029,0.029l0.076-0.079l-0.029-0.028L71.699,230.067z M71.743,229.423l0.083,0.081l0.104-0.108l-0.054-0.052
		L71.743,229.423z M71.94,229.986l0.102,0.052l0.133-0.137l-0.078-0.077c-0.051,0.053-0.104,0.052-0.16-0.002l-0.029,0.029
		C71.874,229.887,71.884,229.932,71.94,229.986z M71.939,230.252l0.029,0.029l0.052-0.054l-0.083-0.081L71.939,230.252z
		 M72.076,230.386l0.029,0.028l0.052-0.054l-0.029-0.029L72.076,230.386z M72.098,230.197l0.083,0.081l0.057-0.107l-0.059-0.057
		L72.098,230.197z M72.176,229.635l0.079,0.076l0.052-0.054l-0.078-0.076L72.176,229.635z M72.373,224.764l0.052-0.054
		c0.036,0.035,0,0.124-0.107,0.268l-0.054-0.053L72.373,224.764z M72.383,227.519l0.058,0l0.024,0.023l0.001,0.058l-0.052,0.054
		l-0.03-0.029L72.383,227.519z M72.683,229.545l0.024-0.024l0.001,0.106l-0.024,0.025L72.683,229.545z M72.731,229.544l0.053-0.054
		l0.089,0.134l0.131,0.08c-0.041,0.042-0.058,0.112-0.05,0.208l-0.106,0.001l-0.024-0.024
		C72.831,229.727,72.8,229.611,72.731,229.544z M73.25,232.002l0.057-0.059l0.024,0.024l-0.057,0.059L73.25,232.002z
		 M73.267,229.484l0.053-0.054l0.054,0.053l-0.052,0.054L73.267,229.484z M73.275,231.761c0.095-0.098,0.264-0.128,0.506-0.09
		l-0.004,0.053l-0.048,0.001l-0.109,0.161l-0.076,0.078l-0.106,0.002l-0.132-0.129l-0.006-0.053L73.275,231.761z M73.477,229.268
		l0.133-0.137l0.054,0.052l-0.081,0.083L73.477,229.268z M73.634,230.842l0.029,0.028l0.081-0.083l-0.029-0.029L73.634,230.842z
		 M73.795,228.939l0.053-0.054l0.054,0.052l-0.052,0.054L73.795,228.939z M73.905,232.525l0.27,0.262l0.024-0.024l-0.241-0.292
		L73.905,232.525z M74.002,232.2l0.16,0.002l-0.029-0.028l-0.106,0.001L74.002,232.2z M74.142,230.81l0.106-0.001l-0.054-0.052
		L74.142,230.81z M74.199,232.811l0.221,0.214L74.444,233l-0.163-0.215l-0.058,0L74.199,232.811z M74.52,230.911l0.052-0.054
		l0.162,0.157l-0.053,0.054L74.52,230.911z M74.665,233.587l0.054,0.052l0.053-0.005l0.001,0.106l-0.029,0.03l-0.16-0.051
		l0.004-0.053L74.665,233.587z M75.235,232.235l0.053,0.004l0.028-0.029l-0.083-0.081L75.235,232.235z M75.694,232.528l0.079,0.076
		l0.052-0.054l-0.024-0.024L75.694,232.528z M76.137,235.437l0.054,0.052l0.052-0.054L76.137,235.437z M77.459,232.928l0.029-0.029
		l0.111,0.003l-0.081,0.083L77.459,232.928z M77.653,232.955l0.108,0.105l-0.028,0.029l-0.106,0.05l-0.054-0.052L77.653,232.955z
		 M77.948,233.298l0.058-0.001l0.054,0.053l-0.163,0.108l-0.024-0.023L77.948,233.298z"/>
	<path d="M75.769,224.871l0.096,0.015l0.06-0.045l0.015-0.096L76,224.701l0.361-0.097l0.02-0.1l0.222,0.185l0.115-0.085
		l-0.041-0.055l-0.101-0.01l-0.045-0.061l0.02-0.1c1.056-0.35,1.948-0.335,2.677,0.044l0.044,0.061l-0.105-0.016l-0.055,0.041
		l0.011,0.255l-0.096-0.014l-0.115,0.085l0.538,0.486l-0.386,0.548l-0.105-0.016l-0.041-0.055l0.105-0.341l0.096,0.015l0.055-0.041
		l-0.085-0.116l-0.225,0.167l0.085,0.116l-0.116,0.085c-0.084-0.114-0.165-0.142-0.241-0.085c0.084,0.114,0.089,0.198,0.016,0.252
		l-0.102-0.01l-0.044-0.061l0.061-0.045l-0.101-0.01l-0.085-0.115l-0.011-0.256c-0.069,0.052-0.333-0.105-0.79-0.47l-0.11,0.081
		l-0.041-0.055l0.01-0.101c-0.13-0.176-0.49-0.146-1.08,0.092l-0.125,0.186l-0.1-0.02l-0.061,0.044
		c-0.594,0.439-0.762,1.005-0.504,1.699l0.116-0.085l0.081,0.11l-0.055,0.041l-0.453-0.014l0.126,0.17l0.17-0.126l0.041,0.055
		l0.11,0.275l0.187,0.125c-0.077,0.057-0.045,0.181,0.096,0.372l-0.1-0.02l-0.061,0.045l-0.125,0.186l0.126,0.17l0.115-0.085
		l0.085,0.115l-0.044,0.296l-0.1-0.02l-0.061,0.045l0.044,0.061l0.187,0.125l-0.061,0.045l-0.351-0.004
		c0.113-0.084,0.142-0.165,0.085-0.241l-0.115,0.085l-0.085-0.115c-0.054-0.073-0.004-0.167,0.149-0.281l-0.044-0.061
		c-0.158,0.117-0.427,0.112-0.81-0.014l-0.014,0.096l-0.085-0.116c-0.107-0.436-0.07-0.903,0.112-1.4
		c-0.029-0.392,0.042-0.652,0.215-0.779l-0.041-0.055c-0.154,0.114-0.259,0.132-0.316,0.055l0.02-0.1l0.371-0.096L75.769,224.871z
		 M74.79,226.998l0.045,0.06l0.17-0.126l-0.045-0.06L74.79,226.998z M75.09,229.071l-0.009,0.355l-0.181-0.13l0.015-0.096
		L75.09,229.071z M74.9,224.893l0.061-0.045l0.085,0.116l-0.061,0.044L74.9,224.893z M74.903,228.588l0.116-0.085l0.085,0.115
		l-0.116,0.085L74.903,228.588z M74.903,230.969l0.061-0.045l0.085,0.115l-0.061,0.045L74.903,230.969z M76.268,228.285l0.412-0.041
		l0.185-0.222l0.201,0.03l-0.3,0.307l-0.041-0.055l-0.02,0.1l-0.055,0.041l-0.211,0.071l0.041,0.055l0.267,0.246l0.071,0.211
		l-0.116,0.085l-0.197-0.382l-0.044-0.061l-0.055,0.041l0.242,0.442l0.251-0.016l0.015-0.096l0.095,0.015l0.045,0.06l-0.055,0.041
		l0.096,0.014l0.045,0.061l0.111,0.266l0.352,0.36l0.419,0.566c0.265,0.359,0.633,0.733,1.102,1.123l-0.02,0.1l0.994,0.149
		l0.868-0.378l0.014-0.095l0.226-0.167l0.101,0.011l0.756-1.001l0.201,0.03l0.055-0.041l-0.041-0.055l-0.181-0.129l0.011-0.102
		l0.055-0.041l0.276-0.11l0.041,0.055c-0.161,0.765-0.519,1.353-1.076,1.765l-0.225,0.167l-0.262,0.015l-0.014,0.096l-0.055,0.041
		c-0.836,0.618-2.031,0.591-3.586-0.079l-0.503-0.325l-0.11-0.275l-0.201-0.03l-0.463-0.626l0.015-0.096l-0.096-0.014l-0.045-0.061
		l0.015-0.096l-0.096-0.014l-0.045-0.061c-0.057-0.077-0.01-0.171,0.14-0.282l-0.081-0.11l-0.17,0.126l-0.085-0.116l0.03-0.201
		l0.225-0.167l0.045,0.061l0.071,0.211l0.044-0.296l-0.085-0.115l-0.326,0.156l-0.13,0.181l-0.096-0.014l-0.034,0.195l-0.055,0.041
		l-0.041-0.055l-0.071-0.211l-0.11,0.082l-0.085-0.116c0.187-0.138,0.322-0.15,0.406-0.037l0.061-0.044l0.26-0.362l-0.085-0.115
		c0.135-0.1,0.376-0.131,0.723-0.092C76.371,228.83,76.367,228.625,76.268,228.285z M75.189,230.757l0.06-0.045l0.195,0.034
		l-0.17,0.126L75.189,230.757z M75.706,225.615l0.055-0.041l0.085,0.115l-0.055,0.041L75.706,225.615z M76,230.072l0.041,0.055
		l0.227,0.181l0.055-0.041l-0.081-0.11l-0.181-0.13L76,230.072z M76.116,225.583l0.568-0.071l0.014-0.096l0.061-0.045l0.266-0.111
		l0.085,0.115l-0.27,0.106l-0.016,0.105l-0.055,0.041c-0.295,0.099-0.5,0.103-0.613,0.011L76.116,225.583z M76.149,229.078
		l0.041,0.055l0.115-0.085l-0.041-0.055L76.149,229.078z M76.381,229.519l0.13,0.176l0.061-0.044l0.03-0.201l-0.105-0.016
		L76.381,229.519z M76.477,224.875l0.126,0.17l-0.115,0.085l-0.045-0.06L76.477,224.875z M76.483,230.243l0.041,0.055l0.025-0.196
		l-0.041-0.055L76.483,230.243z M76.919,230.005l0.01,0.256l0.045,0.061l0.271-0.116l-0.126-0.17L76.919,230.005z M77.072,230.683
		l0.1,0.02l0.116-0.085l-0.187-0.125L77.072,230.683z M77.617,227.373l0.055-0.041c0.077-0.057,0.159-0.027,0.245,0.09l0.061-0.044
		c-0.086-0.117-0.093-0.203-0.02-0.257l0.327,0.201l0.055-0.041l-0.082-0.11l0.116-0.085l0.041,0.055l-0.03,0.201l-0.566,0.418
		l-0.105-0.016l-0.01,0.101l-0.055,0.041l-0.487,0.181l-0.085-0.115l0.055-0.041l0.105,0.016l0.01-0.101l0.061-0.044l0.27-0.106
		C77.69,227.59,77.704,227.49,77.617,227.373z M77.266,225.345l0.266-0.112l0.085,0.116l-0.3,0.307l-0.081-0.11L77.266,225.345z
		 M77.383,230.989l0.096,0.014l0.115-0.085l-0.181-0.13L77.383,230.989z M77.41,224.355l0.201,0.03l0.014-0.096l-0.044-0.061
		L77.41,224.355z M77.437,227.243l0.055-0.041l0.085,0.115l-0.055,0.041L77.437,227.243z M77.709,230.476l-0.01,0.101l0.085,0.115
		l0.17-0.126l-0.045-0.061L77.709,230.476z M77.887,229.29l0.061-0.045l0.085,0.116l-0.061,0.044L77.887,229.29z M78.115,225.067
		l0.426,0.22l0.016-0.105l0.055-0.041l0.1,0.02l0.061-0.045l0.125-0.186l-0.081-0.11l-0.116,0.085l-0.1-0.02l-0.016,0.105
		l0.041,0.055l-0.055,0.041l-0.201-0.03l-0.041-0.055l0.116-0.085l-0.126-0.17L78.115,225.067z M78.213,229.134l0.061-0.045
		l0.195,0.034l-0.17,0.126L78.213,229.134z M78.322,228.441l0.055-0.041l0.211-0.071l0.044,0.061l-0.226,0.167L78.322,228.441z
		 M78.459,224.463l0.167,0.226l0.201,0.03l-0.112-0.266L78.459,224.463z M78.69,226.673l0.341-0.252l0.211,0.286l-0.401,0.297
		l-0.1-0.02l-0.016,0.105l-0.055,0.041l-0.201-0.03l0.03-0.201l0.085,0.115l0.116-0.085C78.617,226.815,78.613,226.73,78.69,226.673
		z M78.691,232.045l0.041,0.055l0.201,0.03l0.055-0.041l-0.041-0.055L78.751,232L78.691,232.045z M78.816,224.463l0.085,0.115
		l0.055-0.041l-0.085-0.116L78.816,224.463z M78.82,223.755l0.457,0.02l-0.116,0.085l-0.296-0.044L78.82,223.755z M79.331,225.757
		l0.055-0.041l0.101,0.01l0.055-0.041c0.064,0.179,0.068,0.383,0.011,0.612l0.041,0.055l-0.226,0.167l0.015-0.096l-0.126-0.17
		l-0.1-0.02l-0.041-0.055l0.17-0.126l0.256-0.01L79.331,225.757z M79.293,224.637l0.061-0.044c0.386-0.03,0.7,0.12,0.944,0.45
		l-0.055,0.041l0.362,0.259l-0.01,0.102l-0.17,0.125l-0.085-0.115l0.116-0.085l-0.045-0.061l-0.367-0.255l-0.115,0.085l-0.082-0.11
		l-0.151-0.331l-0.256,0.01l-0.06,0.045l0.126,0.17l-0.17,0.126l-0.041-0.055V224.637z M79.45,225.321l0.055-0.041l0.197,0.024
		l-0.17,0.126L79.45,225.321z M79.62,227.218l0.195,0.034l0.041,0.055l-0.195-0.034L79.62,227.218z M79.67,231.933l0.085,0.116
		l0.055-0.041l-0.085-0.116L79.67,231.933z M80.053,225.309l0.06-0.045l0.045,0.061l0.065,0.215l-0.055,0.041l-0.201-0.03
		L80.053,225.309z M80.094,228.101l0.055-0.041l0.102,0.01l0.055-0.041l0.116,0.271l-0.061,0.045L80.094,228.101z M80.36,227.989
		l0.286-0.211l-0.024,0.197l-0.176,0.13L80.36,227.989z M82.036,227.277l0.115-0.085l0.044,0.06
		c0.239,0.323,0.293,0.634,0.163,0.934l-0.095-0.014c-0.059-0.194-0.059-0.313,0-0.357l-0.101-0.01l-0.167-0.225L82.036,227.277z
		 M82.284,228.684l0.115-0.085l0.085,0.115l0.152,0.321l-0.17,0.126l-0.126-0.17L82.284,228.684z M82.389,228.342l0.11-0.081
		l0.041,0.055l-0.11,0.082L82.389,228.342z"/>
	<path d="M82.044,222.344l0.061,0.017l0.584,1.274c0.225-1.161,0.782-1.946,1.672-2.354c1.387-0.637,2.431-0.193,3.131,1.331
		l1.375,2.995l-0.021,0.055l0.269,0.373l-0.026,0.058l0.171,0.373l0.863-0.396l0.115,0.038l0.051,0.112l-0.047,0.112l-0.981,0.45
		l-0.02,0.055l-0.055-0.021l-0.081,0.037c-0.071,0.229-0.162,0.375-0.271,0.441l0.16,0.152l-0.021,0.055l-0.037,0.017l-0.061-0.018
		l-0.017-0.037l0.026-0.057l-0.061-0.018l-0.155,0.071l0.12,0.261l-0.075,0.034l-0.137-0.298c-0.219,0.081-0.342,0.092-0.368,0.034
		l-0.017-0.037l0.236-0.108l0.259-0.254c-0.052-0.157-0.007-0.268,0.134-0.332l-0.123-0.169l-0.405,0.772l-0.831,0.156l-0.047,0.112
		l-0.152-0.021l-0.083,0.129c-0.038,0.017-0.135-0.059-0.292-0.227l0.216-0.054l0.466-0.214l0.182-0.129l-0.034-0.074l-0.081,0.037
		l-0.034-0.075c0.079-0.036,0.107-0.079,0.084-0.129l-0.089-0.095l0.047-0.111l-0.411-0.993l-0.622-1.256l-0.031-0.167l-0.191-0.318
		l-0.188-0.41l-0.462-1.104c-0.344-0.75-0.792-0.998-1.342-0.745l-0.156,0.071c-0.787,0.361-1.233,1.186-1.339,2.473l0.594,1.179
		l1.221,2.659l0.054,0.021l0.017,0.037l0.084-0.129l0.345-0.068l0.219-0.146l0.081-0.037l-0.034-0.075l0.271-0.034l0.017,0.037
		c0.022,0.05-0.005,0.093-0.084,0.129l0.034,0.075c0.066-0.031,0.134,0.013,0.204,0.132l-0.02,0.055l-0.043,0.02l-0.055-0.021
		l0.034,0.075l0.123,0.169l-0.037,0.017l0.054,0.02l0.034,0.075c0.023,0.049-0.005,0.092-0.084,0.128l0.017,0.038l0.199-0.091
		l-0.047,0.111l-3.292,1.512l-0.034-0.075l0.192-0.088l0.101-0.091l0.209-0.051l2.516-1.155l-0.017-0.038l-0.607,0.234l-0.034-0.075
		l0.392-0.18l0.061,0.018l0.037-0.017l-0.034-0.075l-0.291,0.088l-0.199,0.091l-0.337,0.2l-0.054-0.021l-0.038,0.017l-0.026,0.058
		l-0.037,0.017l-0.172,0.034l-0.026,0.058l0.017,0.037l-0.5,0.139l-1.144,0.525l-0.054-0.02c-0.054,0.014-0.127-0.042-0.221-0.17
		l0.043-0.02l0.02-0.055l-0.017-0.037l0.038-0.017l0.48-0.085l0.144-0.111l0.156-0.071l-0.035-0.075l0.038-0.017l0.034,0.075
		l0.081-0.037l-0.054-0.021l-0.017-0.037l0.037-0.017l-0.149-0.112l-0.056-0.335l-2.373-5.169l-0.864,0.396l-0.109-0.041
		l-0.051-0.112l0.041-0.109l0.783-0.359C81.305,222.909,81.761,222.625,82.044,222.344z M82.379,229.17l0.054,0.02l0.175-0.125
		l0.081-0.037l0.172-0.034l0.101-0.091l0.051,0.112l-0.176,0.126l-0.115-0.038l-0.046,0.111l-0.23,0.105l-0.034-0.074l-0.026,0.057
		l-0.075,0.034l-0.034-0.075L82.379,229.17z M82.509,229.878l0.043-0.02l0.034,0.075l-0.043,0.02L82.509,229.878z M82.685,227.263
		l0.017,0.037l0.081-0.037l-0.017-0.038L82.685,227.263z M82.815,227.022l0.051,0.112l0.037-0.017l-0.051-0.112L82.815,227.022z
		 M83.078,228.94l0.037-0.017l0.035,0.075l-0.118,0.054L83.078,228.94z M83.201,229.109l0.037-0.017l0.034,0.074l-0.037,0.017
		L83.201,229.109z M83.62,228.465l0.051,0.112l0.081-0.037l-0.017-0.037L83.62,228.465z M84.888,228.425l0.017,0.037l0.155-0.071
		l-0.017-0.037L84.888,228.425z M86.657,225.349l0.156-0.071l0.115,0.038l0.085,0.187c0.009,0.086-0.052,0.159-0.185,0.22
		l-0.037,0.017c-0.09,0.011-0.164-0.045-0.221-0.169L86.657,225.349z M86.61,222.558l0.017,0.037l0.043-0.02l0.101-0.091
		l-0.034-0.075l-0.081,0.037L86.61,222.558z M87.367,227.107l0.118-0.054l0.034,0.075l-0.118,0.054L87.367,227.107z M87.995,227.541
		l0.061,0.018l0.017,0.037l-0.084,0.129l-0.061-0.018l-0.017-0.037L87.995,227.541z M88.533,226.436l0.115,0.038l-0.034-0.075
		L88.533,226.436z M88.855,227.958l0.081-0.037l0.163,0.061l-0.058,0.169l-0.043,0.02l-0.172-0.064l-0.017-0.038L88.855,227.958z"/>
	<path d="M89.294,220.896l0.04-0.01c0.154-0.041,0.317,0.033,0.491,0.223c-0.042,0.266,0.018,0.788,0.182,1.564l0.219,0.691
		l0.074,0.412l-0.04,0.011c-0.09-0.056-0.234-0.058-0.433-0.005l-0.009-0.033l-0.589,0.312l-0.321-0.035l-0.04,0.01l-0.053,0.092
		c-0.2,0.029-0.306,0.02-0.319-0.028l-0.011-0.04l0.307-0.47l-0.065-0.379l-0.203,0.408l0.01,0.04
		c-0.295,0.06-0.474-0.025-0.534-0.254l-0.099-0.052l-0.011-0.04c0.053-0.014,0.12-0.109,0.2-0.287
		c0.049-0.013,0.06-0.068,0.034-0.165l0.073-0.02c0.026,0.097,0.138,0.119,0.336,0.066l0.11,0.282l0.073-0.02
		c-0.055-0.207-0.02-0.622,0.107-1.245l-0.05-0.029l0.054-0.092l-0.042-0.024l0.096-0.224l-0.05-0.029
		c0.04-0.011,0.069-0.096,0.087-0.257l0.04-0.011l0.123,0.01L89.294,220.896z M88.077,222.676l0.073-0.02l0.02,0.073l-0.073,0.02
		L88.077,222.676z M89.56,223.973l0.152-0.041c0.413-0.025,0.642,0.046,0.687,0.214c0.186,0.7,0.518,1.213,0.996,1.539
		c0.398,0.187,0.778,0.231,1.139,0.136c0.242-0.064,0.625-0.247,1.149-0.546l0.02,0.073l0.031-0.044l0.146-0.039l0.009,0.033
		c0.039,0.146-0.338,0.403-1.131,0.774l-0.04,0.011c-0.321,0.071-0.489,0.076-0.505,0.014l0.031-0.043l-0.263-0.085l-0.073,0.019
		l0.151,0.116l0.02,0.073l-0.04,0.01c-0.603,0.038-1.092-0.03-1.469-0.204c-0.612-0.281-1.108-0.764-1.489-1.451l-0.187,0.015
		l-0.021-0.08l0.646-0.362C89.498,224.029,89.512,223.985,89.56,223.973z M88.913,223.162l0.058,0.218l0.04-0.011l0.106-0.184
		l-0.039-0.146l-0.112,0.03L88.913,223.162z M89.405,219.529l0.033-0.009l0.142,0.083l0.006,0.154l-0.152,0.041
		c-0.048,0.013-0.083-0.018-0.102-0.093L89.405,219.529z M89.495,222.688l0.03,0.112c0.075-0.02,0.123,0.008,0.142,0.083
		l0.042,0.024l0.079-0.021l0.078-0.134l-0.04-0.152l-0.092-0.053l-0.073,0.02L89.495,222.688z M89.61,224.745l0.088,0.174
		l0.073-0.019l-0.016-0.194l-0.092-0.053L89.61,224.745z M91.102,219.553c1.111-0.168,1.719-0.054,1.824,0.343
		c0.194-0.052,0.383,0.12,0.568,0.514l0.011,0.04c0.095,0.357-0.088,0.653-0.549,0.889l-0.073,0.02
		c-0.225,0.06-0.438-0.001-0.643-0.183l0.031-0.043l0.073-0.02l0.042,0.024l0.04-0.01l0.024-0.042l-0.011-0.04l-0.217-0.098
		l-0.031,0.043l-0.033,0.009l-0.107-0.084l-0.03-0.112c-0.036-0.188,0.036-0.469,0.215-0.842l-0.02-0.073
		c-0.255-0.196-0.594-0.238-1.017-0.126l-0.185,0.049c-0.233,0.062-0.559,0.267-0.976,0.613l-0.04,0.01l-0.048-0.022l-0.024,0.042
		l-0.072,0.019l-0.049-0.022l-0.033,0.009C89.788,220.18,90.231,219.878,91.102,219.553z M89.917,224.861l0.039,0.145l0.092,0.053
		l0.04-0.01l-0.015-0.187l-0.01-0.04L89.917,224.861z M90.388,225.012l0.009,0.033l0.112-0.03l-0.009-0.033L90.388,225.012z
		 M92.284,220.886l0.073-0.019c0.132-0.035,0.336-0.207,0.612-0.517l-0.028-0.105l-0.225,0.06
		C92.414,220.64,92.27,220.833,92.284,220.886z M94.091,224.148l0.04-0.011l0.184,0.107c0.043,0.163-0.042,0.434-0.258,0.811
		c-0.013-0.048-0.054-0.063-0.125-0.044l-0.048-0.022l-0.01-0.04C94.02,224.58,94.092,224.312,94.091,224.148z M94.143,223.307
		l0.113-0.03l0.092,0.054l0.005,0.472c-0.123-0.019-0.198-0.053-0.226-0.103l-0.039-0.146
		C94.068,223.404,94.086,223.322,94.143,223.307z"/>
	<path d="M92.752,221.376l0.088-0.011l0.005,0.041l-0.153,0.218l0.004,0.034l0.167-0.096l0.045,0.036l0.004,0.034
		c0.007,0.054-0.033,0.087-0.119,0.097l-0.234-0.054l-0.036,0.045l-0.052-0.035l-0.004-0.034c-0.01-0.082,0.073-0.133,0.25-0.154
		L92.752,221.376z M94.772,220.773c0.083,0.041,0.233,0.047,0.45,0.021l0.005,0.041l0.036-0.046l0.047-0.006
		c0.059-0.007,0.093,0.03,0.103,0.112l0.129-0.016c0.097-0.145,0.207-0.225,0.329-0.24l0.041-0.005l0.097,0.064l-0.176,0.021
		l0.005,0.041l0.141,0.024l0.079-0.092c0.086-0.01,0.138,0.063,0.158,0.222l0.706-0.086c0.041-0.005,0.149,0.154,0.327,0.477
		l-0.043,0.046l-0.231-0.089l-0.042,0.046c-0.013-0.108-0.063-0.158-0.149-0.147l-0.129,0.016l0.046,0.036l-0.022,0.161
		l-0.088,0.011c-0.059,0.007-0.098-0.066-0.116-0.22l-0.127,0.091l-0.041,0.005l-0.229-0.013l-0.152,0.218l0.062,0.116L95.85,221.6
		l0.053,0.035l0.028,0.231c0.086-0.011,0.132,0.011,0.139,0.065l-0.036,0.046l0.005,0.041l-0.141-0.024l-0.041,0.005l0.005,0.041
		l0.088-0.011l0.009,0.075c-0.157,0.028-0.282,0.099-0.374,0.21l-0.047,0.006c-0.059,0.007-0.093-0.03-0.103-0.111l-0.041,0.005
		l-0.148,0.259l0.098,0.071l0.052,0.428l0.065,0.192l-0.036,0.045l0.088-0.011l-0.073,0.133l0.004,0.034l0.064,0.192l-0.114,0.138
		l0.005,0.041c0.109,0.07,0.291,0.339,0.545,0.809c0.086-0.01,0.135,0.037,0.148,0.141c0.423,0.192,0.804,0.267,1.143,0.226
		l0.394-0.048c0.421-0.051,0.846-0.235,1.275-0.554c-0.006-0.05,0.063-0.086,0.208-0.108l0.141,0.024l0.009,0.074
		c-0.362,0.499-1.038,0.808-2.029,0.928c-0.733,0.089-1.444-0.119-2.134-0.623l-0.009-0.075l0.143-0.3l-0.041,0.005l-0.287,0.193
		l-0.047,0.005c-0.326-0.185-0.695-0.659-1.109-1.421l0.042-0.046l-0.071-0.191l-0.004-0.034c-0.007-0.054,0.062-0.09,0.207-0.108
		l-0.005-0.041c-0.005-0.041-0.097-0.083-0.277-0.125l-0.034-0.278l0.074-0.126l0.226,0.048c0.375-0.087,0.557-0.175,0.546-0.266
		l-0.009-0.075l-0.88,0.066c-0.013-0.104-0.091-0.147-0.236-0.13l-0.26,0.073l-0.122-0.268l0.25-0.147l0.098,0.064l0.079-0.085
		l0.055,0.11l0.047-0.005l0.072-0.091l-0.045-0.029L94.772,220.773z M96.257,218.314l0.062,0.11l0.337-0.117l0.098,0.064
		l0.047-0.006l-0.009-0.075c0.855-0.104,1.71,0.325,2.566,1.287c0.225,0.376,0.353,0.694,0.384,0.952l-0.042,0.046l0.004,0.034
		l0.062,0.116l-0.047,0.006l-0.212,0.067l-0.052-0.035l-0.005-0.041c-0.125,0.07-0.312,0.121-0.561,0.151l-0.441,0.053l-0.222-0.014
		l0.009,0.075l-0.088,0.011l-0.145-0.059l-0.341,0.083l-0.206-0.216l0.036-0.045l0.394-0.048c-0.007-0.132,0.014-0.202,0.064-0.208
		l-0.046-0.036l0.031-0.479l-0.081-0.272l-0.036,0.045l-0.088,0.011l-0.045-0.036l-0.043,0.046L97.6,219.79
		c-0.185-0.051-0.285-0.133-0.298-0.246c0.059-0.007,0.093,0.03,0.103,0.111l0.129-0.016l0.314,0.038l-0.005-0.041
		c-0.21-0.824-0.713-1.188-1.51-1.091l-0.136,0.017l-0.171,0.062l-0.01-0.082l0.171-0.062l-0.005-0.041l-0.088,0.011
		c-0.468,0.3-0.735,0.546-0.799,0.737l-0.088,0.011c-0.009-0.077-0.076-0.135-0.201-0.175l-0.136,0.017l0.005,0.041
		c0.074,0.124,0.187,0.177,0.336,0.159c-0.072,0.201-0.121,0.54-0.146,1.016l-0.171,0.062l-0.062-0.117
		c-0.382,0.29-0.646,0.443-0.791,0.461l-0.088,0.011c0.01,0.077-0.074,0.126-0.25,0.147l-0.01-0.082
		c0.108-0.509,0.325-0.935,0.651-1.277l0.134,0.025l-0.096-0.105C94.895,218.759,95.52,218.403,96.257,218.314z M94.11,222.692
		l0.009,0.075l0.079-0.085L94.11,222.692z M94.426,222.688c0.339,0.221,0.555,0.408,0.647,0.562l0.041-0.005l0.144-0.293
		l-0.041,0.005l-0.043,0.04l-0.57-0.33L94.426,222.688z M95.189,220.922l0.009,0.075l0.131-0.057l-0.004-0.034L95.189,220.922z
		 M95.263,221.871l0.06,0.151l0.088-0.011l0.034-0.121L95.263,221.871z M95.334,221.38l-0.026,0.127l0.26-0.073l-0.005-0.041
		L95.334,221.38z M95.326,224.26l0.01,0.081l0.048-0.006l-0.01-0.081L95.326,224.26z M95.694,221.736
		c0.01,0.082-0.06,0.131-0.209,0.149c0.071,0.097,0.166,0.138,0.284,0.124l-0.005-0.041l-0.103-0.104l-0.005-0.041l0.217-0.026
		l-0.005-0.041L95.694,221.736z M95.697,221.419l0.134,0.025l0.043-0.046l-0.005-0.041l-0.052-0.035l-0.041,0.005L95.697,221.419z
		 M95.73,222.771l0.088-0.011l0.005,0.041l-0.088,0.011L95.73,222.771z M95.859,222.756l0.088-0.011l0.005,0.041l-0.088,0.011
		L95.859,222.756z M95.881,223.676l0.088-0.011l0.284,0.124l0.005,0.041l0.167-0.103l0.005,0.041
		c0.007,0.059-0.092,0.11-0.298,0.153c-0.093-0.122-0.173-0.179-0.241-0.17L95.881,223.676z M95.979,223.34l0.082-0.01l0.098,0.07
		l-0.036,0.046l-0.129,0.016L95.979,223.34z M96.157,221.521l0.177-0.021l0.014,0.115l0.213-0.06l0.004,0.034l-0.036,0.046
		l0.045,0.036l0.005,0.041l-0.079,0.085l-0.097-0.064l-0.212,0.067l-0.067-0.157L96.157,221.521z M96.468,223.005l0.052,0.028
		l0.041-0.005l0.01,0.082l-0.31-0.004l-0.009-0.075l0.212-0.067L96.468,223.005z M96.752,223.129l0.047-0.006l0.226,0.048
		l0.005,0.041c0.007,0.054-0.062,0.09-0.207,0.107l0.009,0.075c0.263-0.032,0.431,0.015,0.506,0.139l0.005,0.041l-0.121,0.139
		l-0.139-0.066l-0.041,0.005l0.019,0.156l-0.229-0.014l-0.088,0.011l0.005,0.041l0.177-0.021c0.009,0.072-0.103,0.139-0.334,0.199
		l-0.045-0.029l-0.01-0.081l0.129-0.016l-0.046-0.036l-0.005-0.041c0.167-0.103,0.242-0.218,0.227-0.344
		c-0.154,0.019-0.264-0.021-0.331-0.118l-0.01-0.082C96.523,223.196,96.607,223.147,96.752,223.129z M96.54,223.596l0.047-0.006
		l0.009,0.075l-0.047,0.006L96.54,223.596z M96.57,221.23l0.01,0.081l0.041-0.005l-0.01-0.081L96.57,221.23z M96.618,221.624
		l0.088-0.011l0.01,0.082L96.618,221.624z M96.644,220.023l0.177-0.021l0.01,0.081l-0.177,0.021L96.644,220.023z M96.794,221.603
		c0.116,0.013,0.181,0.072,0.193,0.176l-0.041,0.005l-0.143-0.1L96.794,221.603z M96.849,221.32l0.082-0.01l0.009,0.075l-0.081,0.01
		L96.849,221.32z M96.944,223.581l0.129-0.016l-0.014-0.115L96.944,223.581z M97.211,221.751c0.05-0.006,0.104,0.082,0.163,0.263
		l-0.036,0.046l-0.048,0.005l-0.045-0.036l-0.005-0.041l0.041-0.005l-0.153-0.181l0.036-0.046L97.211,221.751z M97.358,223.696
		l0.041-0.005l0.004,0.034l-0.114,0.138l-0.098-0.071l-0.005-0.041l0.045,0.036l0.047-0.006L97.358,223.696z M97.335,222.776
		l0.01,0.082l-0.088,0.011L97.335,222.776z M97.383,221.689l0.041-0.005l0.098,0.071l0.005,0.041L97.383,221.689z M97.431,223.563
		l0.088-0.011l0.01,0.082l-0.088,0.011L97.431,223.563z M97.712,221.45l0.045,0.036l0.005,0.041l-0.177,0.021l-0.005-0.041
		L97.712,221.45z M97.689,223.133l0.088-0.011l0.01,0.082l-0.088,0.011L97.689,223.133z M97.724,222.688l0.088-0.011l0.01,0.082
		l-0.088,0.011L97.724,222.688z M97.789,222.48l0.182,0.019l0.01,0.082l-0.129,0.016l-0.098-0.071L97.789,222.48z M97.782,224.244
		l0.097,0.064l0.005,0.041l-0.098-0.071L97.782,224.244z M97.965,223.54l0.041-0.005l0.01,0.082l-0.129,0.016L97.965,223.54z
		 M98.39,224.487l0.005,0.041c-0.022,0.081-0.106,0.13-0.25,0.147l-0.088,0.011l-0.097-0.064l-0.005-0.041L98.39,224.487z
		 M97.978,221.824l0.097,0.064l0.005,0.041l-0.098-0.071L97.978,221.824z M98.108,221.085l0.047-0.006l0.01,0.082l-0.047,0.006
		L98.108,221.085z M98.132,219.801c0.076,0.101,0.158,0.146,0.244,0.136l0.124-0.056l-0.01-0.082l-0.119,0.097l-0.048,0.006
		c-0.059,0.007-0.093-0.03-0.103-0.112L98.132,219.801z M98.254,221.549l0.009,0.075l-0.088,0.011L98.254,221.549z M98.297,223.383
		l0.047-0.006l0.009,0.075l-0.136,0.017L98.297,223.383z M98.364,223.933l0.136-0.017l0.009,0.075l-0.136,0.016L98.364,223.933z
		 M98.555,224.026l0.136-0.017l0.01,0.082c-0.059,0.007-0.083,0.049-0.074,0.126l-0.088,0.011l-0.097-0.064L98.555,224.026z
		 M98.528,219.719l0.004,0.034l0.088-0.011l-0.004-0.034L98.528,219.719z M98.807,221.283l0.041-0.005l0.284,0.124l-0.042,0.046
		l-0.134-0.025l-0.212,0.067l-0.062-0.117L98.807,221.283z M98.792,221.161l0.088-0.011l-0.078,0.092L98.792,221.161z
		 M99.077,221.69l0.269,0.401l-0.036,0.046l-0.047,0.005l-0.148-0.14l-0.078,0.092l-0.046-0.036l0.017-0.202l-0.056-0.117
		L99.077,221.69z M99.108,222.286l0.082-0.01l0.097,0.064l-0.17,0.021L99.108,222.286z M99.287,222.34l0.047-0.005l0.098,0.07
		l0.005,0.041l-0.047,0.006l-0.098-0.071L99.287,222.34z M99.368,221.531l0.312-0.038l0.01,0.082l-0.136,0.016l-0.045-0.036
		l-0.042,0.046l-0.088,0.011L99.368,221.531z M99.525,220.955l0.045,0.036l0.048-0.006l0.124-0.056l0.014,0.115l0.042-0.046
		l0.177-0.021l0.01,0.082l-0.214,0.108l-0.275-0.049l-0.01-0.081l0.043-0.04L99.525,220.955z M100.333,221.373l0.108,0.152
		l-0.069,0.167l0.246,0.211l-0.079,0.085c-0.053-0.099-0.103-0.146-0.148-0.14l-0.212,0.067c-0.006-0.054-0.055-0.076-0.146-0.065
		l-0.036,0.046l-0.047,0.005l-0.139-0.065l-0.042,0.046l-0.088,0.011l-0.097-0.064l0.079-0.092l-0.046-0.036l-0.005-0.041
		l0.037-0.039l0.052,0.028l0.129-0.016l-0.009-0.074l0.088-0.011l0.279,0.083C100.172,221.519,100.221,221.433,100.333,221.373z
		 M99.604,222.343l0.041-0.005c0.09-0.011,0.142,0.036,0.154,0.14l0.265-0.032l0.098,0.071c-0.068,0.458-0.218,0.701-0.449,0.729
		l-0.004-0.034l0.095-0.693l-0.191-0.094L99.604,222.343z M99.806,218.166l0.052,0.028l0.02,0.163l-0.024,0.203l-0.082,0.01
		l-0.01-0.081l0.036-0.046l-0.005-0.041l-0.143-0.1l-0.01-0.081L99.806,218.166z M99.787,220.166l0.097,0.063l-0.078,0.092
		l-0.103-0.111l0.037-0.039L99.787,220.166z M99.911,221.183l0.005,0.041l-0.078,0.092l-0.053-0.035l-0.005-0.041l0.042-0.046
		L99.911,221.183z M99.973,220.618l0.129-0.016l0.01,0.082l-0.129,0.016L99.973,220.618z M100.207,219.591l0.041-0.005l0.01,0.082
		l-0.041,0.005L100.207,219.591z M100.343,218.9l0.098,0.064l-0.079,0.092l-0.098-0.071L100.343,218.9z M100.491,221.195
		l0.041-0.005l0.098,0.071l-0.037,0.039l-0.047,0.006l-0.045-0.029L100.491,221.195z M100.601,222.105l0.088-0.011l0.009,0.075
		l-0.088,0.011L100.601,222.105z M100.884,222.229c0.326-0.003,0.493,0.03,0.501,0.098l0.005,0.041l-0.079,0.085l-0.129,0.016
		c-0.249-0.08-0.375-0.143-0.381-0.188l0.036-0.045L100.884,222.229z M101.142,221.798l0.052,0.035l0.004,0.034l-0.042,0.046
		l-0.088,0.011l-0.005-0.041L101.142,221.798z M101.208,221.949l0.129-0.016l0.01,0.081l-0.129,0.016L101.208,221.949z"/>
</g>
<g>
	<path d="M98,68c0.44-2.625,0.662-5.25,0.807-7.875c0.159-2.625,0.188-5.25,0.193-7.875c0.03-5.25-0.881-10.5-1.2-15.75
		c-0.171-2.625-0.489-5.25-0.76-7.875C96.782,26,96.761,23.375,97,20.75c0.234-2.625,0.617-5.25,1.173-7.875
		c0.574-2.625,1.28-5.25,2.427-7.875h0.8c1.147,2.625,1.853,5.25,2.427,7.875c0.556,2.625,0.939,5.25,1.173,7.875
		c0.239,2.625,0.218,5.25-0.04,7.875c-0.271,2.625-0.589,5.25-0.76,7.875c-0.319,5.25-1.23,10.5-1.2,15.75
		c0.005,2.625,0.034,5.25,0.193,7.875c0.145,2.625,0.367,5.25,0.807,7.875H98z"/>
</g>
</svg>
